<svg xmlns="http://www.w3.org/2000/svg" xmlns:xlink="http://www.w3.org/1999/xlink" xmlns:lucid="lucid" width="203" height="291.73"><g transform="translate(-741.7000000000002 -308.76666666666677)" lucid:page-tab-id="RIkq9L5beDyu"><path d="M763.2 336.27a6 6 0 0 1 6-6h148a6 6 0 0 1 6 6v87a6 6 0 0 1-6 6h-148a6 6 0 0 1-6-6z" stroke="#5e5e5e" stroke-width="3" fill="#fff"/><use xlink:href="#a" transform="matrix(1,0,0,1,771.2000000000002,338.26666666666677) translate(51.025 45.1)"/><path d="M763.2 486a6 6 0 0 1 6-6h148a6 6 0 0 1 6 6v87a6 6 0 0 1-6 6h-148a6 6 0 0 1-6-6z" stroke="#5e5e5e" stroke-width="3" fill="#fff"/><use xlink:href="#b" transform="matrix(1,0,0,1,771.2000000000002,488) translate(55.05 45.1)"/><path d="M843.2 431.77v37.74" stroke="#5e5e5e" stroke-width="2" fill="none"/><path d="M844.2 431.8h-2v-1.03h2z" stroke="#5e5e5e" stroke-width=".05" fill="#5e5e5e"/><path d="M843.2 476.54l-7.64-12.92h15.28z" stroke="#5e5e5e" stroke-width="2" fill="#5e5e5e"/><defs><path fill="#333" d="M220-157c-53 9-28 100-34 157h-49v-107c1-27-5-49-29-50C55-147 81-57 75 0H25l-1-190h47c2 12-1 28 3 38 10-53 101-56 108 0 13-22 24-43 59-42 82 1 51 116 57 194h-49v-107c-1-25-5-48-29-50" id="c"/><path fill="#333" d="M133-34C117-15 103 5 69 4 32 3 11-16 11-54c-1-60 55-63 116-61 1-26-3-47-28-47-18 1-26 9-28 27l-52-2c7-38 36-58 82-57s74 22 75 68l1 82c-1 14 12 18 25 15v27c-30 8-71 5-69-32zm-48 3c29 0 43-24 42-57-32 0-66-3-65 30 0 17 8 27 23 27" id="d"/><path fill="#333" d="M25-224v-37h50v37H25zM25 0v-190h50V0H25" id="e"/><path fill="#333" d="M135-194c87-1 58 113 63 194h-50c-7-57 23-157-34-157-59 0-34 97-39 157H25l-1-190h47c2 12-1 28 3 38 12-26 28-41 61-42" id="f"/><g id="a"><use transform="matrix(0.05,0,0,0.05,0,0)" xlink:href="#c"/><use transform="matrix(0.05,0,0,0.05,16,0)" xlink:href="#d"/><use transform="matrix(0.05,0,0,0.05,26,0)" xlink:href="#e"/><use transform="matrix(0.05,0,0,0.05,31,0)" xlink:href="#f"/></g><path fill="#333" d="M137-138c1-29-70-34-71-4 15 46 118 7 119 86 1 83-164 76-172 9l43-7c4 19 20 25 44 25 33 8 57-30 24-41C81-84 22-81 20-136c-2-80 154-74 161-7" id="g"/><path fill="#333" d="M110-194c64 0 96 36 96 99 0 64-35 99-97 99-61 0-95-36-95-99 0-62 34-99 96-99zm-1 164c35 0 45-28 45-65 0-40-10-65-43-65-34 0-45 26-45 65 0 36 10 65 43 65" id="h"/><path fill="#333" d="M135-150c-39-12-60 13-60 57V0H25l-1-190h47c2 13-1 29 3 40 6-28 27-53 61-41v41" id="i"/><path fill="#333" d="M115-3C79 11 28 4 28-45v-112H4v-33h27l15-45h31v45h36v33H77v99c-1 23 16 31 38 25v30" id="j"/><g id="b"><use transform="matrix(0.05,0,0,0.05,0,0)" xlink:href="#g"/><use transform="matrix(0.05,0,0,0.05,10,0)" xlink:href="#h"/><use transform="matrix(0.05,0,0,0.05,20.950000000000003,0)" xlink:href="#i"/><use transform="matrix(0.05,0,0,0.05,27.950000000000003,0)" xlink:href="#j"/></g></defs></g></svg>