<svg xmlns="http://www.w3.org/2000/svg" xmlns:xlink="http://www.w3.org/1999/xlink" xmlns:lucid="lucid" width="407.8" height="543"><g transform="translate(-675.3 -298.5)" lucid:page-tab-id="VVFqYF.wmZpq"><path d="M800 326a6 6 0 0 1 6-6h148a6 6 0 0 1 6 6v108a6 6 0 0 1-6 6H806a6 6 0 0 1-6-6z" stroke="#5e5e5e" stroke-width="3" fill="#fff"/><use xlink:href="#a" transform="matrix(1,0,0,1,812,332) translate(49.525 50.4)"/><path d="M696.8 526a6 6 0 0 1 6-6H1054a6 6 0 0 1 6 6v108a6 6 0 0 1-6 6H702.8a6 6 0 0 1-6-6z" stroke="#5e5e5e" stroke-width="3" fill="#fff"/><path d="M696.8 557.6H1060" stroke="#5e5e5e" stroke-width="3" fill="none"/><use xlink:href="#b" transform="matrix(1,0,0,1,704.8,528) translate(56.70000000000002 14.6)"/><use xlink:href="#c" transform="matrix(1,0,0,1,708.8,565.6) translate(45.125 15.500000000000002)"/><use xlink:href="#d" transform="matrix(1,0,0,1,708.8,565.6) translate(221.92499999999998 15.500000000000002)"/><use xlink:href="#e" transform="matrix(1,0,0,1,708.8,565.6) translate(6.650000000000006 37.1)"/><use xlink:href="#f" transform="matrix(1,0,0,1,708.8,565.6) translate(160.45000000000002 37.1)"/><use xlink:href="#g" transform="matrix(1,0,0,1,708.8,565.6) translate(283.4 37.1)"/><use xlink:href="#h" transform="matrix(1,0,0,1,708.8,565.6) translate(39.17500000000001 58.7)"/><use xlink:href="#i" transform="matrix(1,0,0,1,708.8,565.6) translate(221.925 58.7)"/><path d="M880 442.5v67" stroke="#5e5e5e" stroke-width="2" fill="none"/><path d="M881 442.53h-2v-1.03h2z" stroke="#5e5e5e" stroke-width=".05" fill="#5e5e5e"/><path d="M880 516.53l-7.64-12.9h15.28z" stroke="#5e5e5e" stroke-width="2" fill="#5e5e5e"/><path d="M698.4 706a6 6 0 0 1 6-6h351.2a6 6 0 0 1 6 6v108a6 6 0 0 1-6 6H704.4a6 6 0 0 1-6-6z" stroke="#5e5e5e" stroke-width="3" fill="#fff"/><path d="M698.4 737.6h363.2" stroke="#5e5e5e" stroke-width="3" fill="none"/><g><use xlink:href="#j" transform="matrix(1,0,0,1,706.4,708) translate(41.275000000000034 14.6)"/></g><g><use xlink:href="#c" transform="matrix(1,0,0,1,710.4,745.6) translate(45.125 15.500000000000002)"/><use xlink:href="#d" transform="matrix(1,0,0,1,710.4,745.6) translate(221.92499999999998 15.500000000000002)"/><use xlink:href="#e" transform="matrix(1,0,0,1,710.4,745.6) translate(6.650000000000006 37.1)"/><use xlink:href="#f" transform="matrix(1,0,0,1,710.4,745.6) translate(160.45000000000002 37.1)"/><use xlink:href="#g" transform="matrix(1,0,0,1,710.4,745.6) translate(283.4 37.1)"/><use xlink:href="#h" transform="matrix(1,0,0,1,710.4,745.6) translate(39.17500000000001 58.7)"/><use xlink:href="#i" transform="matrix(1,0,0,1,710.4,745.6) translate(221.925 58.7)"/></g><path d="M878.4 642.5v47" stroke="#5e5e5e" stroke-width="2" fill="none"/><path d="M879.4 642.53h-2v-1.03h2z" stroke="#5e5e5e" stroke-width=".05" fill="#5e5e5e"/><path d="M878.4 696.53l-7.64-12.9h15.28z" stroke="#5e5e5e" stroke-width="2" fill="#5e5e5e"/><defs><path fill="#333" d="M205 0l-28-72H64L36 0H1l101-248h38L239 0h-34zm-38-99l-47-123c-12 45-31 82-46 123h93" id="k"/><path fill="#333" d="M160-131c35 5 61 23 61 61C221 17 115-2 30 0v-248c76 3 177-17 177 60 0 33-19 50-47 57zm-97-11c50-1 110 9 110-42 0-47-63-36-110-37v79zm0 115c55-2 124 14 124-45 0-56-70-42-124-44v89" id="l"/><path fill="#333" d="M212-179c-10-28-35-45-73-45-59 0-87 40-87 99 0 60 29 101 89 101 43 0 62-24 78-52l27 14C228-24 195 4 139 4 59 4 22-46 18-125c-6-104 99-153 187-111 19 9 31 26 39 46" id="m"/><g id="a"><use transform="matrix(0.05,0,0,0.05,0,0)" xlink:href="#k"/><use transform="matrix(0.05,0,0,0.05,12,0)" xlink:href="#l"/><use transform="matrix(0.05,0,0,0.05,24,0)" xlink:href="#m"/></g><path fill="#333" d="M238-95c0 69-44 99-111 99C63 4 22-25 22-93v-155h51v151c-1 38 19 59 55 60 90 1 49-130 58-211h52v153" id="n"/><path fill="#333" d="M137-138c1-29-70-34-71-4 15 46 118 7 119 86 1 83-164 76-172 9l43-7c4 19 20 25 44 25 33 8 57-30 24-41C81-84 22-81 20-136c-2-80 154-74 161-7" id="o"/><path fill="#333" d="M185-48c-13 30-37 53-82 52C43 2 14-33 14-96s30-98 90-98c62 0 83 45 84 108H66c0 31 8 55 39 56 18 0 30-7 34-22zm-45-69c5-46-57-63-70-21-2 6-4 13-4 21h74" id="p"/><path fill="#333" d="M135-150c-39-12-60 13-60 57V0H25l-1-190h47c2 13-1 29 3 40 6-28 27-53 61-41v41" id="q"/><path fill="#333" d="M24 0v-248h52V0H24" id="r"/><path fill="#333" d="M135-194c87-1 58 113 63 194h-50c-7-57 23-157-34-157-59 0-34 97-39 157H25l-1-190h47c2 12-1 28 3 38 12-26 28-41 61-42" id="s"/><path fill="#333" d="M115-3C79 11 28 4 28-45v-112H4v-33h27l15-45h31v45h36v33H77v99c-1 23 16 31 38 25v30" id="t"/><path fill="#333" d="M121-226c-27-7-43 5-38 36h38v33H83V0H34v-157H6v-33h28c-9-59 32-81 87-68v32" id="u"/><path fill="#333" d="M133-34C117-15 103 5 69 4 32 3 11-16 11-54c-1-60 55-63 116-61 1-26-3-47-28-47-18 1-26 9-28 27l-52-2c7-38 36-58 82-57s74 22 75 68l1 82c-1 14 12 18 25 15v27c-30 8-71 5-69-32zm-48 3c29 0 43-24 42-57-32 0-66-3-65 30 0 17 8 27 23 27" id="v"/><path fill="#333" d="M190-63c-7 42-38 67-86 67-59 0-84-38-90-98-12-110 154-137 174-36l-49 2c-2-19-15-32-35-32-30 0-35 28-38 64-6 74 65 87 74 30" id="w"/><path fill="#333" d="M24 0v-54h51V0H24" id="x"/><g id="b"><use transform="matrix(0.05,0,0,0.05,0,0)" xlink:href="#n"/><use transform="matrix(0.05,0,0,0.05,12.950000000000001,0)" xlink:href="#o"/><use transform="matrix(0.05,0,0,0.05,22.950000000000003,0)" xlink:href="#p"/><use transform="matrix(0.05,0,0,0.05,32.95,0)" xlink:href="#q"/><use transform="matrix(0.05,0,0,0.05,39.95,0)" xlink:href="#r"/><use transform="matrix(0.05,0,0,0.05,44.95,0)" xlink:href="#s"/><use transform="matrix(0.05,0,0,0.05,55.900000000000006,0)" xlink:href="#t"/><use transform="matrix(0.05,0,0,0.05,61.85,0)" xlink:href="#p"/><use transform="matrix(0.05,0,0,0.05,71.85000000000001,0)" xlink:href="#q"/><use transform="matrix(0.05,0,0,0.05,78.85000000000001,0)" xlink:href="#u"/><use transform="matrix(0.05,0,0,0.05,84.80000000000001,0)" xlink:href="#v"/><use transform="matrix(0.05,0,0,0.05,94.80000000000001,0)" xlink:href="#w"/><use transform="matrix(0.05,0,0,0.05,104.80000000000001,0)" xlink:href="#p"/><use transform="matrix(0.05,0,0,0.05,114.80000000000001,0)" xlink:href="#x"/><use transform="matrix(0.05,0,0,0.05,119.80000000000001,0)" xlink:href="#n"/><use transform="matrix(0.05,0,0,0.05,132.75,0)" xlink:href="#o"/><use transform="matrix(0.05,0,0,0.05,142.75,0)" xlink:href="#p"/><use transform="matrix(0.05,0,0,0.05,152.75,0)" xlink:href="#q"/><use transform="matrix(0.05,0,0,0.05,159.75,0)" xlink:href="#r"/><use transform="matrix(0.05,0,0,0.05,164.75,0)" xlink:href="#s"/><use transform="matrix(0.05,0,0,0.05,175.7,0)" xlink:href="#t"/><use transform="matrix(0.05,0,0,0.05,181.64999999999998,0)" xlink:href="#p"/><use transform="matrix(0.05,0,0,0.05,191.64999999999998,0)" xlink:href="#q"/><use transform="matrix(0.05,0,0,0.05,198.64999999999998,0)" xlink:href="#u"/><use transform="matrix(0.05,0,0,0.05,204.59999999999997,0)" xlink:href="#v"/><use transform="matrix(0.05,0,0,0.05,214.59999999999997,0)" xlink:href="#w"/><use transform="matrix(0.05,0,0,0.05,224.59999999999997,0)" xlink:href="#p"/></g><path fill="#333" d="M85-194c31 0 48 13 60 33l-1-100h32l1 261h-30c-2-10 0-23-3-31C134-8 116 4 85 4 32 4 16-35 15-94c0-66 23-100 70-100zm9 24c-40 0-46 34-46 75 0 40 6 74 45 74 42 0 51-32 51-76 0-42-9-74-50-73" id="y"/><path fill="#333" d="M24-231v-30h32v30H24zM24 0v-190h32V0H24" id="z"/><path fill="#333" d="M135-143c-3-34-86-38-87 0 15 53 115 12 119 90S17 21 10-45l28-5c4 36 97 45 98 0-10-56-113-15-118-90-4-57 82-63 122-42 12 7 21 19 24 35" id="A"/><path fill="#333" d="M115-194c55 1 70 41 70 98S169 2 115 4C84 4 66-9 55-30l1 105H24l-1-265h31l2 30c10-21 28-34 59-34zm-8 174c40 0 45-34 45-75s-6-73-45-74c-42 0-51 32-51 76 0 43 10 73 51 73" id="B"/><path fill="#333" d="M24 0v-261h32V0H24" id="C"/><path fill="#333" d="M141-36C126-15 110 5 73 4 37 3 15-17 15-53c-1-64 63-63 125-63 3-35-9-54-41-54-24 1-41 7-42 31l-33-3c5-37 33-52 76-52 45 0 72 20 72 64v82c-1 20 7 32 28 27v20c-31 9-61-2-59-35zM48-53c0 20 12 33 32 33 41-3 63-29 60-74-43 2-92-5-92 41" id="D"/><path fill="#333" d="M179-190L93 31C79 59 56 82 12 73V49c39 6 53-20 64-50L1-190h34L92-34l54-156h33" id="E"/><path fill="#333" d="M-5 72V49h209v23H-5" id="F"/><path fill="#333" d="M96-169c-40 0-48 33-48 73s9 75 48 75c24 0 41-14 43-38l32 2c-6 37-31 61-74 61-59 0-76-41-82-99-10-93 101-131 147-64 4 7 5 14 7 22l-32 3c-4-21-16-35-41-35" id="G"/><path fill="#333" d="M100-194c62-1 85 37 85 99 1 63-27 99-86 99S16-35 15-95c0-66 28-99 85-99zM99-20c44 1 53-31 53-75 0-43-8-75-51-75s-53 32-53 75 10 74 51 75" id="H"/><path fill="#333" d="M117-194c89-4 53 116 60 194h-32v-121c0-31-8-49-39-48C34-167 62-67 57 0H25l-1-190h30c1 10-1 24 2 32 11-22 29-35 61-36" id="I"/><path fill="#333" d="M59-47c-2 24 18 29 38 22v24C64 9 27 4 27-40v-127H5v-23h24l9-43h21v43h35v23H59v120" id="J"/><path fill="#333" d="M87 75C49 33 22-17 22-94c0-76 28-126 65-167h31c-38 41-64 92-64 168S80 34 118 75H87" id="K"/><path fill="#333" d="M100-194c63 0 86 42 84 106H49c0 40 14 67 53 68 26 1 43-12 49-29l28 8c-11 28-37 45-77 45C44 4 14-33 15-96c1-61 26-98 85-98zm52 81c6-60-76-77-97-28-3 7-6 17-6 28h103" id="L"/><path fill="#333" d="M101-234c-31-9-42 10-38 44h38v23H63V0H32v-167H5v-23h27c-7-52 17-82 69-68v24" id="M"/><path fill="#333" d="M68-38c1 34 0 65-14 84H32c9-13 17-26 17-46H33v-38h35" id="N"/><g id="c"><use transform="matrix(0.05,0,0,0.05,0,0)" xlink:href="#y"/><use transform="matrix(0.05,0,0,0.05,10,0)" xlink:href="#z"/><use transform="matrix(0.05,0,0,0.05,13.949999999999998,0)" xlink:href="#A"/><use transform="matrix(0.05,0,0,0.05,22.95,0)" xlink:href="#B"/><use transform="matrix(0.05,0,0,0.05,32.95,0)" xlink:href="#C"/><use transform="matrix(0.05,0,0,0.05,36.900000000000006,0)" xlink:href="#D"/><use transform="matrix(0.05,0,0,0.05,46.900000000000006,0)" xlink:href="#E"/><use transform="matrix(0.05,0,0,0.05,55.900000000000006,0)" xlink:href="#F"/><use transform="matrix(0.05,0,0,0.05,65.9,0)" xlink:href="#G"/><use transform="matrix(0.05,0,0,0.05,74.9,0)" xlink:href="#H"/><use transform="matrix(0.05,0,0,0.05,84.9,0)" xlink:href="#I"/><use transform="matrix(0.05,0,0,0.05,94.9,0)" xlink:href="#J"/><use transform="matrix(0.05,0,0,0.05,99.9,0)" xlink:href="#D"/><use transform="matrix(0.05,0,0,0.05,109.9,0)" xlink:href="#G"/><use transform="matrix(0.05,0,0,0.05,118.9,0)" xlink:href="#J"/><use transform="matrix(0.05,0,0,0.05,123.9,0)" xlink:href="#A"/><use transform="matrix(0.05,0,0,0.05,132.9,0)" xlink:href="#K"/><use transform="matrix(0.05,0,0,0.05,138.85,0)" xlink:href="#A"/><use transform="matrix(0.05,0,0,0.05,147.85,0)" xlink:href="#L"/><use transform="matrix(0.05,0,0,0.05,157.85,0)" xlink:href="#C"/><use transform="matrix(0.05,0,0,0.05,161.79999999999998,0)" xlink:href="#M"/><use transform="matrix(0.05,0,0,0.05,166.79999999999998,0)" xlink:href="#N"/></g><path fill="#333" d="M33-261c38 41 65 92 65 168S71 34 33 75H2C39 34 66-17 66-93S39-220 2-261h31" id="O"/><g id="d"><use transform="matrix(0.05,0,0,0.05,0,0)" xlink:href="#G"/><use transform="matrix(0.05,0,0,0.05,9,0)" xlink:href="#H"/><use transform="matrix(0.05,0,0,0.05,19,0)" xlink:href="#I"/><use transform="matrix(0.05,0,0,0.05,29,0)" xlink:href="#J"/><use transform="matrix(0.05,0,0,0.05,34,0)" xlink:href="#D"/><use transform="matrix(0.05,0,0,0.05,44,0)" xlink:href="#G"/><use transform="matrix(0.05,0,0,0.05,53,0)" xlink:href="#J"/><use transform="matrix(0.05,0,0,0.05,58,0)" xlink:href="#A"/><use transform="matrix(0.05,0,0,0.05,67,0)" xlink:href="#O"/></g><g id="e"><use transform="matrix(0.05,0,0,0.05,0,0)" xlink:href="#y"/><use transform="matrix(0.05,0,0,0.05,10,0)" xlink:href="#z"/><use transform="matrix(0.05,0,0,0.05,13.949999999999998,0)" xlink:href="#A"/><use transform="matrix(0.05,0,0,0.05,22.95,0)" xlink:href="#B"/><use transform="matrix(0.05,0,0,0.05,32.95,0)" xlink:href="#C"/><use transform="matrix(0.05,0,0,0.05,36.900000000000006,0)" xlink:href="#D"/><use transform="matrix(0.05,0,0,0.05,46.900000000000006,0)" xlink:href="#E"/><use transform="matrix(0.05,0,0,0.05,55.900000000000006,0)" xlink:href="#F"/><use transform="matrix(0.05,0,0,0.05,65.9,0)" xlink:href="#I"/><use transform="matrix(0.05,0,0,0.05,75.9,0)" xlink:href="#H"/><use transform="matrix(0.05,0,0,0.05,85.9,0)" xlink:href="#J"/><use transform="matrix(0.05,0,0,0.05,90.9,0)" xlink:href="#L"/><use transform="matrix(0.05,0,0,0.05,100.9,0)" xlink:href="#A"/><use transform="matrix(0.05,0,0,0.05,109.9,0)" xlink:href="#K"/><use transform="matrix(0.05,0,0,0.05,115.85000000000001,0)" xlink:href="#A"/><use transform="matrix(0.05,0,0,0.05,124.85000000000001,0)" xlink:href="#L"/><use transform="matrix(0.05,0,0,0.05,134.85000000000002,0)" xlink:href="#C"/><use transform="matrix(0.05,0,0,0.05,138.8,0)" xlink:href="#M"/><use transform="matrix(0.05,0,0,0.05,143.8,0)" xlink:href="#N"/></g><path fill="#333" d="M210-169c-67 3-38 105-44 169h-31v-121c0-29-5-50-35-48C34-165 62-65 56 0H25l-1-190h30c1 10-1 24 2 32 10-44 99-50 107 0 11-21 27-35 58-36 85-2 47 119 55 194h-31v-121c0-29-5-49-35-48" id="P"/><g id="f"><use transform="matrix(0.05,0,0,0.05,0,0)" xlink:href="#G"/><use transform="matrix(0.05,0,0,0.05,9,0)" xlink:href="#H"/><use transform="matrix(0.05,0,0,0.05,19,0)" xlink:href="#I"/><use transform="matrix(0.05,0,0,0.05,29,0)" xlink:href="#J"/><use transform="matrix(0.05,0,0,0.05,34,0)" xlink:href="#D"/><use transform="matrix(0.05,0,0,0.05,44,0)" xlink:href="#G"/><use transform="matrix(0.05,0,0,0.05,53,0)" xlink:href="#J"/><use transform="matrix(0.05,0,0,0.05,58,0)" xlink:href="#F"/><use transform="matrix(0.05,0,0,0.05,68,0)" xlink:href="#I"/><use transform="matrix(0.05,0,0,0.05,78,0)" xlink:href="#D"/><use transform="matrix(0.05,0,0,0.05,88,0)" xlink:href="#P"/><use transform="matrix(0.05,0,0,0.05,102.95,0)" xlink:href="#L"/><use transform="matrix(0.05,0,0,0.05,112.95,0)" xlink:href="#N"/></g><g id="g"><use transform="matrix(0.05,0,0,0.05,0,0)" xlink:href="#I"/><use transform="matrix(0.05,0,0,0.05,10,0)" xlink:href="#H"/><use transform="matrix(0.05,0,0,0.05,20,0)" xlink:href="#J"/><use transform="matrix(0.05,0,0,0.05,25,0)" xlink:href="#L"/><use transform="matrix(0.05,0,0,0.05,35,0)" xlink:href="#A"/><use transform="matrix(0.05,0,0,0.05,44,0)" xlink:href="#O"/></g><g id="h"><use transform="matrix(0.05,0,0,0.05,0,0)" xlink:href="#y"/><use transform="matrix(0.05,0,0,0.05,10,0)" xlink:href="#z"/><use transform="matrix(0.05,0,0,0.05,13.949999999999998,0)" xlink:href="#A"/><use transform="matrix(0.05,0,0,0.05,22.95,0)" xlink:href="#B"/><use transform="matrix(0.05,0,0,0.05,32.95,0)" xlink:href="#C"/><use transform="matrix(0.05,0,0,0.05,36.900000000000006,0)" xlink:href="#D"/><use transform="matrix(0.05,0,0,0.05,46.900000000000006,0)" xlink:href="#E"/><use transform="matrix(0.05,0,0,0.05,55.900000000000006,0)" xlink:href="#F"/><use transform="matrix(0.05,0,0,0.05,65.9,0)" xlink:href="#G"/><use transform="matrix(0.05,0,0,0.05,74.9,0)" xlink:href="#H"/><use transform="matrix(0.05,0,0,0.05,84.9,0)" xlink:href="#P"/><use transform="matrix(0.05,0,0,0.05,99.85000000000001,0)" xlink:href="#D"/><use transform="matrix(0.05,0,0,0.05,109.85000000000001,0)" xlink:href="#I"/><use transform="matrix(0.05,0,0,0.05,119.85000000000001,0)" xlink:href="#y"/><use transform="matrix(0.05,0,0,0.05,129.85000000000002,0)" xlink:href="#A"/><use transform="matrix(0.05,0,0,0.05,138.85000000000002,0)" xlink:href="#K"/><use transform="matrix(0.05,0,0,0.05,144.8,0)" xlink:href="#A"/><use transform="matrix(0.05,0,0,0.05,153.8,0)" xlink:href="#L"/><use transform="matrix(0.05,0,0,0.05,163.8,0)" xlink:href="#C"/><use transform="matrix(0.05,0,0,0.05,167.75,0)" xlink:href="#M"/><use transform="matrix(0.05,0,0,0.05,172.75,0)" xlink:href="#N"/></g><g id="i"><use transform="matrix(0.05,0,0,0.05,0,0)" xlink:href="#G"/><use transform="matrix(0.05,0,0,0.05,9,0)" xlink:href="#H"/><use transform="matrix(0.05,0,0,0.05,19,0)" xlink:href="#P"/><use transform="matrix(0.05,0,0,0.05,33.95,0)" xlink:href="#D"/><use transform="matrix(0.05,0,0,0.05,43.95,0)" xlink:href="#I"/><use transform="matrix(0.05,0,0,0.05,53.95,0)" xlink:href="#y"/><use transform="matrix(0.05,0,0,0.05,63.95,0)" xlink:href="#A"/><use transform="matrix(0.05,0,0,0.05,72.95,0)" xlink:href="#O"/></g><path fill="#333" d="M67-125c0 53 21 87 73 88 37 1 54-22 65-47l45 17C233-25 199 4 140 4 58 4 20-42 15-125 8-235 124-281 211-232c18 10 29 29 36 50l-46 12c-8-25-30-41-62-41-52 0-71 34-72 86" id="Q"/><path fill="#333" d="M110-194c64 0 96 36 96 99 0 64-35 99-97 99-61 0-95-36-95-99 0-62 34-99 96-99zm-1 164c35 0 45-28 45-65 0-40-10-65-43-65-34 0-45 26-45 65 0 36 10 65 43 65" id="R"/><path fill="#333" d="M25 0v-261h50V0H25" id="S"/><g id="j"><use transform="matrix(0.05,0,0,0.05,0,0)" xlink:href="#n"/><use transform="matrix(0.05,0,0,0.05,12.950000000000001,0)" xlink:href="#o"/><use transform="matrix(0.05,0,0,0.05,22.950000000000003,0)" xlink:href="#p"/><use transform="matrix(0.05,0,0,0.05,32.95,0)" xlink:href="#q"/><use transform="matrix(0.05,0,0,0.05,39.95,0)" xlink:href="#r"/><use transform="matrix(0.05,0,0,0.05,44.95,0)" xlink:href="#s"/><use transform="matrix(0.05,0,0,0.05,55.900000000000006,0)" xlink:href="#t"/><use transform="matrix(0.05,0,0,0.05,61.85,0)" xlink:href="#p"/><use transform="matrix(0.05,0,0,0.05,71.85000000000001,0)" xlink:href="#q"/><use transform="matrix(0.05,0,0,0.05,78.85000000000001,0)" xlink:href="#u"/><use transform="matrix(0.05,0,0,0.05,84.80000000000001,0)" xlink:href="#v"/><use transform="matrix(0.05,0,0,0.05,94.80000000000001,0)" xlink:href="#w"/><use transform="matrix(0.05,0,0,0.05,104.80000000000001,0)" xlink:href="#p"/><use transform="matrix(0.05,0,0,0.05,114.80000000000001,0)" xlink:href="#x"/><use transform="matrix(0.05,0,0,0.05,119.80000000000001,0)" xlink:href="#Q"/><use transform="matrix(0.05,0,0,0.05,132.75,0)" xlink:href="#R"/><use transform="matrix(0.05,0,0,0.05,143.7,0)" xlink:href="#s"/><use transform="matrix(0.05,0,0,0.05,154.64999999999998,0)" xlink:href="#o"/><use transform="matrix(0.05,0,0,0.05,164.64999999999998,0)" xlink:href="#R"/><use transform="matrix(0.05,0,0,0.05,175.59999999999997,0)" xlink:href="#S"/><use transform="matrix(0.05,0,0,0.05,180.59999999999997,0)" xlink:href="#p"/><use transform="matrix(0.05,0,0,0.05,190.59999999999997,0)" xlink:href="#r"/><use transform="matrix(0.05,0,0,0.05,195.59999999999997,0)" xlink:href="#s"/><use transform="matrix(0.05,0,0,0.05,206.54999999999995,0)" xlink:href="#t"/><use transform="matrix(0.05,0,0,0.05,212.49999999999991,0)" xlink:href="#p"/><use transform="matrix(0.05,0,0,0.05,222.49999999999991,0)" xlink:href="#q"/><use transform="matrix(0.05,0,0,0.05,229.49999999999991,0)" xlink:href="#u"/><use transform="matrix(0.05,0,0,0.05,235.44999999999993,0)" xlink:href="#v"/><use transform="matrix(0.05,0,0,0.05,245.44999999999993,0)" xlink:href="#w"/><use transform="matrix(0.05,0,0,0.05,255.44999999999993,0)" xlink:href="#p"/></g></defs></g></svg>