<svg xmlns="http://www.w3.org/2000/svg" xmlns:xlink="http://www.w3.org/1999/xlink" xmlns:lucid="lucid" width="943" height="1155"><g transform="translate(141.5 -58.5)" lucid:page-tab-id="9c9pb26TTSxb"><path d="M0 86a6 6 0 0 1 6-6h288a6 6 0 0 1 6 6v122a6 6 0 0 1-6 6H6a6 6 0 0 1-6-6z" stroke="#5e5e5e" stroke-width="3" fill="#fff"/><path d="M0 117.6h300M0 155.2h300" stroke="#5e5e5e" stroke-width="3" fill="none"/><use xlink:href="#a" transform="matrix(1,0,0,1,8,88) translate(93.525 14.6)"/><use xlink:href="#b" transform="matrix(1,0,0,1,12,125.6) translate(54.599999999999994 14.6)"/><use xlink:href="#c" transform="matrix(1,0,0,1,12,125.6) translate(131.6 14.6)"/><use xlink:href="#d" transform="matrix(1,0,0,1,12,163.2) translate(5.724999999999994 14.799999999999999)"/><use xlink:href="#e" transform="matrix(1,0,0,1,12,163.2) translate(163.475 14.799999999999999)"/><use xlink:href="#f" transform="matrix(1,0,0,1,12,163.2) translate(237.32500000000002 14.799999999999999)"/><use xlink:href="#g" transform="matrix(1,0,0,1,12,163.2) translate(48.14999999999999 36.4)"/><use xlink:href="#h" transform="matrix(1,0,0,1,12,163.2) translate(134.05 36.4)"/><use xlink:href="#i" transform="matrix(1,0,0,1,12,163.2) translate(169.95 36.4)"/><path d="M380 86a6 6 0 0 1 6-6h388a6 6 0 0 1 6 6v252a6 6 0 0 1-6 6H386a6 6 0 0 1-6-6z" stroke="#5e5e5e" stroke-width="3" fill="#fff"/><path d="M380 117.6h400m-400 37.6h400" stroke="#5e5e5e" stroke-width="3" fill="none"/><use xlink:href="#j" transform="matrix(1,0,0,1,388,88) translate(152.525 14.6)"/><use xlink:href="#k" transform="matrix(1,0,0,1,392,125.6) translate(126.075 14.6)"/><use xlink:href="#l" transform="matrix(1,0,0,1,392,125.6) translate(180.075 14.6)"/><use xlink:href="#m" transform="matrix(1,0,0,1,392,163.2) translate(81.6 14.500000000000009)"/><use xlink:href="#n" transform="matrix(1,0,0,1,392,163.2) translate(207.55 14.500000000000009)"/><use xlink:href="#o" transform="matrix(1,0,0,1,392,163.2) translate(261.45000000000005 14.500000000000009)"/><use xlink:href="#p" transform="matrix(1,0,0,1,392,163.2) translate(7.250000000000057 36.10000000000001)"/><use xlink:href="#h" transform="matrix(1,0,0,1,392,163.2) translate(263 36.10000000000001)"/><use xlink:href="#q" transform="matrix(1,0,0,1,392,163.2) translate(298.9 36.10000000000001)"/><use xlink:href="#r" transform="matrix(1,0,0,1,392,163.2) translate(28.67500000000001 57.70000000000001)"/><use xlink:href="#h" transform="matrix(1,0,0,1,392,163.2) translate(241.575 57.70000000000001)"/><use xlink:href="#q" transform="matrix(1,0,0,1,392,163.2) translate(277.475 57.70000000000001)"/><use xlink:href="#s" transform="matrix(1,0,0,1,392,163.2) translate(28.200000000000017 79.30000000000003)"/><use xlink:href="#t" transform="matrix(1,0,0,1,392,163.2) translate(181.05000000000004 79.30000000000003)"/><use xlink:href="#u" transform="matrix(1,0,0,1,392,163.2) translate(210.00000000000003 79.30000000000003)"/><use xlink:href="#h" transform="matrix(1,0,0,1,392,163.2) translate(291.95000000000005 79.30000000000003)"/><use xlink:href="#v" transform="matrix(1,0,0,1,392,163.2) translate(327.85 79.30000000000003)"/><use xlink:href="#w" transform="matrix(1,0,0,1,392,163.2) translate(56.625 100.90000000000002)"/><use xlink:href="#h" transform="matrix(1,0,0,1,392,163.2) translate(263.525 100.90000000000002)"/><use xlink:href="#v" transform="matrix(1,0,0,1,392,163.2) translate(299.42499999999995 100.90000000000002)"/><use xlink:href="#x" transform="matrix(1,0,0,1,392,163.2) translate(15.625000000000028 122.50000000000001)"/><use xlink:href="#t" transform="matrix(1,0,0,1,392,163.2) translate(240.57500000000002 122.50000000000001)"/><use xlink:href="#y" transform="matrix(1,0,0,1,392,163.2) translate(269.525 122.50000000000001)"/><use xlink:href="#h" transform="matrix(1,0,0,1,392,163.2) translate(304.525 122.50000000000001)"/><use xlink:href="#v" transform="matrix(1,0,0,1,392,163.2) translate(340.42499999999995 122.50000000000001)"/><use xlink:href="#z" transform="matrix(1,0,0,1,392,163.2) translate(136.6 144.1)"/><use xlink:href="#A" transform="matrix(1,0,0,1,392,163.2) translate(211.45 144.1)"/><use xlink:href="#B" transform="matrix(1,0,0,1,392,163.2) translate(108.65 165.70000000000002)"/><use xlink:href="#C" transform="matrix(1,0,0,1,392,163.2) translate(233.45 165.70000000000002)"/><path d="M-120 286a6 6 0 0 1 6-6h476.8a6 6 0 0 1 6 6v252a6 6 0 0 1-6 6H-114a6 6 0 0 1-6-6z" stroke="#5e5e5e" stroke-width="3" fill="#fff"/><path d="M-120 317.6h488.8m-488.8 124h488.8" stroke="#5e5e5e" stroke-width="3" fill="none"/><g><use xlink:href="#D" transform="matrix(1,0,0,1,-112,288) translate(207.55 14.6)"/></g><g><use xlink:href="#E" transform="matrix(1,0,0,1,-108,325.6) translate(181.075 14.899999999999993)"/><use xlink:href="#F" transform="matrix(1,0,0,1,-108,325.6) translate(236.02499999999998 14.899999999999993)"/><use xlink:href="#G" transform="matrix(1,0,0,1,-108,325.6) translate(156.05 36.49999999999999)"/><use xlink:href="#H" transform="matrix(1,0,0,1,-108,325.6) translate(225.05 36.49999999999999)"/><use xlink:href="#I" transform="matrix(1,0,0,1,-108,325.6) translate(162.6 58.099999999999994)"/><use xlink:href="#J" transform="matrix(1,0,0,1,-108,325.6) translate(236.5 58.099999999999994)"/><use xlink:href="#K" transform="matrix(1,0,0,1,-108,325.6) translate(167.55 79.70000000000002)"/><use xlink:href="#L" transform="matrix(1,0,0,1,-108,325.6) translate(231.5 79.70000000000002)"/><use xlink:href="#M" transform="matrix(1,0,0,1,-108,325.6) translate(183.64999999999998 101.30000000000001)"/><use xlink:href="#N" transform="matrix(1,0,0,1,-108,325.6) translate(236.5 101.30000000000001)"/></g><g><use xlink:href="#O" transform="matrix(1,0,0,1,-108,449.6) translate(104.07500000000002 14.69999999999999)"/><use xlink:href="#P" transform="matrix(1,0,0,1,-108,449.6) translate(260.025 14.69999999999999)"/><use xlink:href="#o" transform="matrix(1,0,0,1,-108,449.6) translate(327.975 14.69999999999999)"/><use xlink:href="#Q" transform="matrix(1,0,0,1,-108,449.6) translate(5.150000000000006 36.29999999999999)"/><use xlink:href="#R" transform="matrix(1,0,0,1,-108,449.6) translate(194.00000000000003 36.29999999999999)"/><use xlink:href="#S" transform="matrix(1,0,0,1,-108,449.6) translate(256 36.29999999999999)"/><use xlink:href="#P" transform="matrix(1,0,0,1,-108,449.6) translate(358.95000000000005 36.29999999999999)"/><use xlink:href="#o" transform="matrix(1,0,0,1,-108,449.6) translate(426.9 36.29999999999999)"/><use xlink:href="#T" transform="matrix(1,0,0,1,-108,449.6) translate(107.1 57.89999999999999)"/><use xlink:href="#P" transform="matrix(1,0,0,1,-108,449.6) translate(257 57.89999999999999)"/><use xlink:href="#o" transform="matrix(1,0,0,1,-108,449.6) translate(324.95000000000005 57.89999999999999)"/><use xlink:href="#U" transform="matrix(1,0,0,1,-108,449.6) translate(143.625 79.5)"/><use xlink:href="#V" transform="matrix(1,0,0,1,-108,449.6) translate(302.42499999999995 79.5)"/></g><path d="M124.4 277.5v-53" stroke="#5e5e5e" stroke-width="2" fill="none"/><path d="M125.4 278.5h-2v-1.03h2z" stroke="#5e5e5e" stroke-width=".05" fill="#5e5e5e"/><path d="M124.4 217.47l7.64 12.9h-15.27z" stroke="#5e5e5e" stroke-width="2" fill="#5e5e5e"/><path d="M510 406a6 6 0 0 1 6-6h168a6 6 0 0 1 6 6v85a6 6 0 0 1-6 6H516a6 6 0 0 1-6-6z" stroke="#5e5e5e" stroke-width="3" fill="#fff"/><path d="M510 437.6h180" stroke="#5e5e5e" stroke-width="3" fill="none"/><g><use xlink:href="#W" transform="matrix(1,0,0,1,518,408) translate(62.075 14.6)"/></g><g><use xlink:href="#X" transform="matrix(1,0,0,1,522,445.6) translate(48.525 14.799999999999999)"/><use xlink:href="#Y" transform="matrix(1,0,0,1,522,445.6) translate(87.525 14.799999999999999)"/><use xlink:href="#Z" transform="matrix(1,0,0,1,522,445.6) translate(45.05 36.4)"/><use xlink:href="#aa" transform="matrix(1,0,0,1,522,445.6) translate(89.05 36.4)"/></g><path d="M600 397.5v-43" stroke="#5e5e5e" stroke-width="2" fill="none"/><path d="M601 398.5h-2v-1.03h2z" stroke="#5e5e5e" stroke-width=".05" fill="#5e5e5e"/><path d="M600 347.46l7.64 12.92h-15.28z" stroke="#5e5e5e" stroke-width="2" fill="#5e5e5e"/><path d="M-102.35 626a6 6 0 0 1 6-6h441.5a6 6 0 0 1 6 6v560a6 6 0 0 1-6 6h-441.5a6 6 0 0 1-6-6z" stroke="#5e5e5e" stroke-width="3" fill="#fff"/><path d="M-102.35 657.6h453.5" stroke="#5e5e5e" stroke-width="3" fill="none"/><g><use xlink:href="#ab" transform="matrix(1,0,0,1,-94.3514443831782,628) translate(198.025 14.6)"/></g><g><use xlink:href="#ac" transform="matrix(1,0,0,1,-90.3514443831782,665.6) translate(175.125 14.699999999999898)"/><use xlink:href="#Y" transform="matrix(1,0,0,1,-90.3514443831782,665.6) translate(234.925 14.699999999999898)"/><use xlink:href="#ad" transform="matrix(1,0,0,1,-90.3514443831782,665.6) translate(145.075 36.2999999999999)"/><use xlink:href="#Y" transform="matrix(1,0,0,1,-90.3514443831782,665.6) translate(264.975 36.2999999999999)"/><use xlink:href="#ae" transform="matrix(1,0,0,1,-90.3514443831782,665.6) translate(156.575 57.8999999999999)"/><use xlink:href="#Y" transform="matrix(1,0,0,1,-90.3514443831782,665.6) translate(253.475 57.8999999999999)"/><use xlink:href="#af" transform="matrix(1,0,0,1,-90.3514443831782,665.6) translate(161.575 79.49999999999991)"/><use xlink:href="#Y" transform="matrix(1,0,0,1,-90.3514443831782,665.6) translate(248.475 79.49999999999991)"/><use xlink:href="#ag" transform="matrix(1,0,0,1,-90.3514443831782,665.6) translate(142.075 101.09999999999991)"/><use xlink:href="#Y" transform="matrix(1,0,0,1,-90.3514443831782,665.6) translate(267.975 101.09999999999991)"/><use xlink:href="#ah" transform="matrix(1,0,0,1,-90.3514443831782,665.6) translate(159.6 122.6999999999999)"/><use xlink:href="#Y" transform="matrix(1,0,0,1,-90.3514443831782,665.6) translate(250.45 122.6999999999999)"/><use xlink:href="#ai" transform="matrix(1,0,0,1,-90.3514443831782,665.6) translate(144.6 144.2999999999999)"/><use xlink:href="#Y" transform="matrix(1,0,0,1,-90.3514443831782,665.6) translate(265.45 144.2999999999999)"/><use xlink:href="#aj" transform="matrix(1,0,0,1,-90.3514443831782,665.6) translate(112.60000000000002 165.8999999999999)"/><use xlink:href="#Y" transform="matrix(1,0,0,1,-90.3514443831782,665.6) translate(297.45 165.8999999999999)"/><use xlink:href="#ak" transform="matrix(1,0,0,1,-90.3514443831782,665.6) translate(146.1 187.4999999999999)"/><use xlink:href="#Y" transform="matrix(1,0,0,1,-90.3514443831782,665.6) translate(263.95 187.4999999999999)"/><use xlink:href="#al" transform="matrix(1,0,0,1,-90.3514443831782,665.6) translate(144.625 209.09999999999988)"/><use xlink:href="#am" transform="matrix(1,0,0,1,-90.3514443831782,665.6) translate(145.15 230.69999999999987)"/><use xlink:href="#an" transform="matrix(1,0,0,1,-90.3514443831782,665.6) translate(81.25000000000003 252.29999999999987)"/><use xlink:href="#Y" transform="matrix(1,0,0,1,-90.3514443831782,665.6) translate(328.79999999999995 252.29999999999987)"/><use xlink:href="#ao" transform="matrix(1,0,0,1,-90.3514443831782,665.6) translate(125.62500000000001 273.89999999999986)"/><use xlink:href="#Y" transform="matrix(1,0,0,1,-90.3514443831782,665.6) translate(284.425 273.89999999999986)"/><use xlink:href="#ap" transform="matrix(1,0,0,1,-90.3514443831782,665.6) translate(152.1 295.4999999999999)"/><use xlink:href="#Y" transform="matrix(1,0,0,1,-90.3514443831782,665.6) translate(257.95 295.4999999999999)"/><use xlink:href="#aq" transform="matrix(1,0,0,1,-90.3514443831782,665.6) translate(152.1 317.0999999999999)"/><use xlink:href="#Y" transform="matrix(1,0,0,1,-90.3514443831782,665.6) translate(257.95 317.0999999999999)"/><use xlink:href="#ar" transform="matrix(1,0,0,1,-90.3514443831782,665.6) translate(134.575 338.69999999999993)"/><use xlink:href="#Y" transform="matrix(1,0,0,1,-90.3514443831782,665.6) translate(275.475 338.69999999999993)"/><use xlink:href="#as" transform="matrix(1,0,0,1,-90.3514443831782,665.6) translate(159.14999999999998 360.29999999999995)"/><use xlink:href="#Y" transform="matrix(1,0,0,1,-90.3514443831782,665.6) translate(250.89999999999998 360.29999999999995)"/><use xlink:href="#at" transform="matrix(1,0,0,1,-90.3514443831782,665.6) translate(125.12500000000001 381.9)"/><use xlink:href="#Y" transform="matrix(1,0,0,1,-90.3514443831782,665.6) translate(284.925 381.9)"/><use xlink:href="#au" transform="matrix(1,0,0,1,-90.3514443831782,665.6) translate(122.60000000000002 403.5)"/><use xlink:href="#Y" transform="matrix(1,0,0,1,-90.3514443831782,665.6) translate(287.45 403.5)"/><use xlink:href="#av" transform="matrix(1,0,0,1,-90.3514443831782,665.6) translate(139.675 425.1)"/><use xlink:href="#Y" transform="matrix(1,0,0,1,-90.3514443831782,665.6) translate(270.375 425.1)"/><use xlink:href="#aw" transform="matrix(1,0,0,1,-90.3514443831782,665.6) translate(169.125 446.70000000000005)"/><use xlink:href="#Y" transform="matrix(1,0,0,1,-90.3514443831782,665.6) translate(240.925 446.70000000000005)"/><use xlink:href="#ax" transform="matrix(1,0,0,1,-90.3514443831782,665.6) translate(9.775000000000034 468.30000000000007)"/><use xlink:href="#ay" transform="matrix(1,0,0,1,-90.3514443831782,665.6) translate(229.525 468.30000000000007)"/><use xlink:href="#az" transform="matrix(1,0,0,1,-90.3514443831782,665.6) translate(258.475 468.30000000000007)"/><use xlink:href="#aA" transform="matrix(1,0,0,1,-90.3514443831782,665.6) translate(356.375 468.30000000000007)"/><use xlink:href="#Y" transform="matrix(1,0,0,1,-90.3514443831782,665.6) translate(400.275 468.30000000000007)"/><use xlink:href="#aw" transform="matrix(1,0,0,1,-90.3514443831782,665.6) translate(169.125 489.9000000000001)"/><use xlink:href="#Y" transform="matrix(1,0,0,1,-90.3514443831782,665.6) translate(240.925 489.9000000000001)"/><use xlink:href="#aB" transform="matrix(1,0,0,1,-90.3514443831782,665.6) translate(168.125 511.5000000000001)"/><use xlink:href="#aC" transform="matrix(1,0,0,1,-90.3514443831782,665.6) translate(228.925 511.5000000000001)"/></g><path d="M124.4 617.5v-63" stroke="#5e5e5e" stroke-width="2" fill="none"/><path d="M125.4 618.5h-2v-1.03h2z" stroke="#5e5e5e" stroke-width=".05" fill="#5e5e5e"/><path d="M124.4 547.46l7.64 12.92h-15.27z" stroke="#5e5e5e" stroke-width="2" fill="#5e5e5e"/><defs><path d="M205 0l-28-72H64L36 0H1l101-248h38L239 0h-34zm-38-99l-47-123c-12 45-31 82-46 123h93" id="aD"/><path d="M85-194c31 0 48 13 60 33l-1-100h32l1 261h-30c-2-10 0-23-3-31C134-8 116 4 85 4 32 4 16-35 15-94c0-66 23-100 70-100zm9 24c-40 0-46 34-46 75 0 40 6 74 45 74 42 0 51-32 51-76 0-42-9-74-50-73" id="aE"/><path d="M114-163C36-179 61-72 57 0H25l-1-190h30c1 12-1 29 2 39 6-27 23-49 58-41v29" id="aF"/><path d="M100-194c63 0 86 42 84 106H49c0 40 14 67 53 68 26 1 43-12 49-29l28 8c-11 28-37 45-77 45C44 4 14-33 15-96c1-61 26-98 85-98zm52 81c6-60-76-77-97-28-3 7-6 17-6 28h103" id="aG"/><path d="M135-143c-3-34-86-38-87 0 15 53 115 12 119 90S17 21 10-45l28-5c4 36 97 45 98 0-10-56-113-15-118-90-4-57 82-63 122-42 12 7 21 19 24 35" id="aH"/><path d="M160-131c35 5 61 23 61 61C221 17 115-2 30 0v-248c76 3 177-17 177 60 0 33-19 50-47 57zm-97-11c50-1 110 9 110-42 0-47-63-36-110-37v79zm0 115c55-2 124 14 124-45 0-56-70-42-124-44v89" id="aI"/><path d="M100-194c62-1 85 37 85 99 1 63-27 99-86 99S16-35 15-95c0-66 28-99 85-99zM99-20c44 1 53-31 53-75 0-43-8-75-51-75s-53 32-53 75 10 74 51 75" id="aJ"/><path d="M143 0L79-87 56-68V0H24v-261h32v163l83-92h37l-77 82L181 0h-38" id="aK"/><g id="a"><use transform="matrix(0.05,0,0,0.05,0,0)" xlink:href="#aD"/><use transform="matrix(0.05,0,0,0.05,12,0)" xlink:href="#aE"/><use transform="matrix(0.05,0,0,0.05,22,0)" xlink:href="#aF"/><use transform="matrix(0.05,0,0,0.05,27.950000000000003,0)" xlink:href="#aG"/><use transform="matrix(0.05,0,0,0.05,37.95,0)" xlink:href="#aH"/><use transform="matrix(0.05,0,0,0.05,46.95,0)" xlink:href="#aH"/><use transform="matrix(0.05,0,0,0.05,55.95,0)" xlink:href="#aI"/><use transform="matrix(0.05,0,0,0.05,67.95,0)" xlink:href="#aJ"/><use transform="matrix(0.05,0,0,0.05,77.95,0)" xlink:href="#aJ"/><use transform="matrix(0.05,0,0,0.05,87.95,0)" xlink:href="#aK"/></g><path d="M96-169c-40 0-48 33-48 73s9 75 48 75c24 0 41-14 43-38l32 2c-6 37-31 61-74 61-59 0-76-41-82-99-10-93 101-131 147-64 4 7 5 14 7 22l-32 3c-4-21-16-35-41-35" id="aL"/><path d="M117-194c89-4 53 116 60 194h-32v-121c0-31-8-49-39-48C34-167 62-67 57 0H25l-1-190h30c1 10-1 24 2 32 11-22 29-35 61-36" id="aM"/><path d="M59-47c-2 24 18 29 38 22v24C64 9 27 4 27-40v-127H5v-23h24l9-43h21v43h35v23H59v120" id="aN"/><path d="M141-36C126-15 110 5 73 4 37 3 15-17 15-53c-1-64 63-63 125-63 3-35-9-54-41-54-24 1-41 7-42 31l-33-3c5-37 33-52 76-52 45 0 72 20 72 64v82c-1 20 7 32 28 27v20c-31 9-61-2-59-35zM48-53c0 20 12 33 32 33 41-3 63-29 60-74-43 2-92-5-92 41" id="aO"/><path d="M33-154v-36h34v36H33zM33 0v-36h34V0H33" id="aP"/><g id="b"><use transform="matrix(0.05,0,0,0.05,0,0)" xlink:href="#aL"/><use transform="matrix(0.05,0,0,0.05,9,0)" xlink:href="#aJ"/><use transform="matrix(0.05,0,0,0.05,19,0)" xlink:href="#aM"/><use transform="matrix(0.05,0,0,0.05,29,0)" xlink:href="#aN"/><use transform="matrix(0.05,0,0,0.05,34,0)" xlink:href="#aO"/><use transform="matrix(0.05,0,0,0.05,44,0)" xlink:href="#aL"/><use transform="matrix(0.05,0,0,0.05,53,0)" xlink:href="#aN"/><use transform="matrix(0.05,0,0,0.05,58,0)" xlink:href="#aH"/><use transform="matrix(0.05,0,0,0.05,67,0)" xlink:href="#aP"/></g><path d="M24 0v-261h32V0H24" id="aQ"/><path d="M24-231v-30h32v30H24zM24 0v-190h32V0H24" id="aR"/><path d="M26 75v-336h71v23H56V52h41v23H26" id="aS"/><path d="M233-177c-1 41-23 64-60 70L243 0h-38l-65-103H63V0H30v-248c88 3 205-21 203 71zM63-129c60-2 137 13 137-47 0-61-80-42-137-45v92" id="aT"/><path d="M3 75V52h41v-290H3v-23h71V75H3" id="aU"/><g id="c"><use transform="matrix(0.05,0,0,0.05,0,0)" xlink:href="#aQ"/><use transform="matrix(0.05,0,0,0.05,3.95,0)" xlink:href="#aR"/><use transform="matrix(0.05,0,0,0.05,7.9,0)" xlink:href="#aH"/><use transform="matrix(0.05,0,0,0.05,16.9,0)" xlink:href="#aN"/><use transform="matrix(0.05,0,0,0.05,21.9,0)" xlink:href="#aS"/><use transform="matrix(0.05,0,0,0.05,26.899999999999995,0)" xlink:href="#aT"/><use transform="matrix(0.05,0,0,0.05,39.85,0)" xlink:href="#aG"/><use transform="matrix(0.05,0,0,0.05,49.85,0)" xlink:href="#aL"/><use transform="matrix(0.05,0,0,0.05,58.85,0)" xlink:href="#aJ"/><use transform="matrix(0.05,0,0,0.05,68.85,0)" xlink:href="#aF"/><use transform="matrix(0.05,0,0,0.05,74.8,0)" xlink:href="#aE"/><use transform="matrix(0.05,0,0,0.05,84.8,0)" xlink:href="#aU"/></g><path d="M-5 72V49h209v23H-5" id="aV"/><path d="M87 75C49 33 22-17 22-94c0-76 28-126 65-167h31c-38 41-64 92-64 168S80 34 118 75H87" id="aW"/><g id="d"><use transform="matrix(0.05,0,0,0.05,0,0)" xlink:href="#aO"/><use transform="matrix(0.05,0,0,0.05,10,0)" xlink:href="#aE"/><use transform="matrix(0.05,0,0,0.05,20,0)" xlink:href="#aE"/><use transform="matrix(0.05,0,0,0.05,30,0)" xlink:href="#aV"/><use transform="matrix(0.05,0,0,0.05,40,0)" xlink:href="#aF"/><use transform="matrix(0.05,0,0,0.05,45.95,0)" xlink:href="#aG"/><use transform="matrix(0.05,0,0,0.05,55.95,0)" xlink:href="#aL"/><use transform="matrix(0.05,0,0,0.05,64.95,0)" xlink:href="#aJ"/><use transform="matrix(0.05,0,0,0.05,74.95,0)" xlink:href="#aF"/><use transform="matrix(0.05,0,0,0.05,80.9,0)" xlink:href="#aE"/><use transform="matrix(0.05,0,0,0.05,90.9,0)" xlink:href="#aW"/><use transform="matrix(0.05,0,0,0.05,96.85000000000001,0)" xlink:href="#aF"/><use transform="matrix(0.05,0,0,0.05,102.80000000000001,0)" xlink:href="#aG"/><use transform="matrix(0.05,0,0,0.05,112.80000000000001,0)" xlink:href="#aL"/><use transform="matrix(0.05,0,0,0.05,121.80000000000001,0)" xlink:href="#aJ"/><use transform="matrix(0.05,0,0,0.05,131.8,0)" xlink:href="#aF"/><use transform="matrix(0.05,0,0,0.05,137.75,0)" xlink:href="#aE"/><use transform="matrix(0.05,0,0,0.05,147.75,0)" xlink:href="#aP"/></g><path d="M33-261c38 41 65 92 65 168S71 34 33 75H2C39 34 66-17 66-93S39-220 2-261h31" id="aX"/><g id="e"><use transform="matrix(0.05,0,0,0.05,0,0)" xlink:href="#aT"/><use transform="matrix(0.05,0,0,0.05,12.950000000000001,0)" xlink:href="#aG"/><use transform="matrix(0.05,0,0,0.05,22.950000000000003,0)" xlink:href="#aL"/><use transform="matrix(0.05,0,0,0.05,31.950000000000003,0)" xlink:href="#aJ"/><use transform="matrix(0.05,0,0,0.05,41.95,0)" xlink:href="#aF"/><use transform="matrix(0.05,0,0,0.05,47.900000000000006,0)" xlink:href="#aE"/><use transform="matrix(0.05,0,0,0.05,57.900000000000006,0)" xlink:href="#aX"/><use transform="matrix(0.05,0,0,0.05,63.85,0)" xlink:href="#aP"/></g><path d="M108 0H70L1-190h34L89-25l56-165h34" id="aY"/><g id="f"><use transform="matrix(0.05,0,0,0.05,0,0)" xlink:href="#aY"/><use transform="matrix(0.05,0,0,0.05,9,0)" xlink:href="#aJ"/><use transform="matrix(0.05,0,0,0.05,19,0)" xlink:href="#aR"/><use transform="matrix(0.05,0,0,0.05,22.95,0)" xlink:href="#aE"/></g><path d="M177-190C167-65 218 103 67 71c-23-6-38-20-44-43l32-5c15 47 100 32 89-28v-30C133-14 115 1 83 1 29 1 15-40 15-95c0-56 16-97 71-98 29-1 48 16 59 35 1-10 0-23 2-32h30zM94-22c36 0 50-32 50-73 0-42-14-75-50-75-39 0-46 34-46 75s6 73 46 73" id="aZ"/><path d="M210-169c-67 3-38 105-44 169h-31v-121c0-29-5-50-35-48C34-165 62-65 56 0H25l-1-190h30c1 10-1 24 2 32 10-44 99-50 107 0 11-21 27-35 58-36 85-2 47 119 55 194h-31v-121c0-29-5-49-35-48" id="ba"/><g id="g"><use transform="matrix(0.05,0,0,0.05,0,0)" xlink:href="#aZ"/><use transform="matrix(0.05,0,0,0.05,10,0)" xlink:href="#aG"/><use transform="matrix(0.05,0,0,0.05,20,0)" xlink:href="#aN"/><use transform="matrix(0.05,0,0,0.05,25,0)" xlink:href="#aW"/><use transform="matrix(0.05,0,0,0.05,30.950000000000003,0)" xlink:href="#aM"/><use transform="matrix(0.05,0,0,0.05,40.95,0)" xlink:href="#aO"/><use transform="matrix(0.05,0,0,0.05,50.95,0)" xlink:href="#ba"/><use transform="matrix(0.05,0,0,0.05,65.9,0)" xlink:href="#aG"/><use transform="matrix(0.05,0,0,0.05,75.9,0)" xlink:href="#aP"/></g><g id="h"><use transform="matrix(0.05,0,0,0.05,0,0)" xlink:href="#aH"/><use transform="matrix(0.05,0,0,0.05,9,0)" xlink:href="#aN"/><use transform="matrix(0.05,0,0,0.05,14,0)" xlink:href="#aF"/><use transform="matrix(0.05,0,0,0.05,19.95,0)" xlink:href="#aX"/><use transform="matrix(0.05,0,0,0.05,25.899999999999995,0)" xlink:href="#aP"/></g><g id="i"><use transform="matrix(0.05,0,0,0.05,0,0)" xlink:href="#aT"/><use transform="matrix(0.05,0,0,0.05,12.950000000000001,0)" xlink:href="#aG"/><use transform="matrix(0.05,0,0,0.05,22.950000000000003,0)" xlink:href="#aL"/><use transform="matrix(0.05,0,0,0.05,31.950000000000003,0)" xlink:href="#aJ"/><use transform="matrix(0.05,0,0,0.05,41.95,0)" xlink:href="#aF"/><use transform="matrix(0.05,0,0,0.05,47.900000000000006,0)" xlink:href="#aE"/></g><path d="M190 0L58-211 59 0H30v-248h39L202-35l-2-213h31V0h-41" id="bb"/><g id="j"><use transform="matrix(0.05,0,0,0.05,0,0)" xlink:href="#bb"/><use transform="matrix(0.05,0,0,0.05,12.950000000000001,0)" xlink:href="#aJ"/><use transform="matrix(0.05,0,0,0.05,22.950000000000003,0)" xlink:href="#aN"/><use transform="matrix(0.05,0,0,0.05,27.950000000000003,0)" xlink:href="#aG"/><use transform="matrix(0.05,0,0,0.05,37.95,0)" xlink:href="#aI"/><use transform="matrix(0.05,0,0,0.05,49.95,0)" xlink:href="#aJ"/><use transform="matrix(0.05,0,0,0.05,59.95,0)" xlink:href="#aJ"/><use transform="matrix(0.05,0,0,0.05,69.95,0)" xlink:href="#aK"/></g><g id="k"><use transform="matrix(0.05,0,0,0.05,0,0)" xlink:href="#aM"/><use transform="matrix(0.05,0,0,0.05,10,0)" xlink:href="#aJ"/><use transform="matrix(0.05,0,0,0.05,20,0)" xlink:href="#aN"/><use transform="matrix(0.05,0,0,0.05,25,0)" xlink:href="#aG"/><use transform="matrix(0.05,0,0,0.05,35,0)" xlink:href="#aH"/><use transform="matrix(0.05,0,0,0.05,44,0)" xlink:href="#aP"/></g><g id="l"><use transform="matrix(0.05,0,0,0.05,0,0)" xlink:href="#aQ"/><use transform="matrix(0.05,0,0,0.05,3.95,0)" xlink:href="#aR"/><use transform="matrix(0.05,0,0,0.05,7.9,0)" xlink:href="#aH"/><use transform="matrix(0.05,0,0,0.05,16.9,0)" xlink:href="#aN"/><use transform="matrix(0.05,0,0,0.05,21.9,0)" xlink:href="#aS"/><use transform="matrix(0.05,0,0,0.05,26.899999999999995,0)" xlink:href="#bb"/><use transform="matrix(0.05,0,0,0.05,39.85,0)" xlink:href="#aJ"/><use transform="matrix(0.05,0,0,0.05,49.85,0)" xlink:href="#aN"/><use transform="matrix(0.05,0,0,0.05,54.85,0)" xlink:href="#aG"/><use transform="matrix(0.05,0,0,0.05,64.85,0)" xlink:href="#aU"/></g><g id="m"><use transform="matrix(0.05,0,0,0.05,0,0)" xlink:href="#aO"/><use transform="matrix(0.05,0,0,0.05,10,0)" xlink:href="#aE"/><use transform="matrix(0.05,0,0,0.05,20,0)" xlink:href="#aE"/><use transform="matrix(0.05,0,0,0.05,30,0)" xlink:href="#aV"/><use transform="matrix(0.05,0,0,0.05,40,0)" xlink:href="#aM"/><use transform="matrix(0.05,0,0,0.05,50,0)" xlink:href="#aJ"/><use transform="matrix(0.05,0,0,0.05,60,0)" xlink:href="#aN"/><use transform="matrix(0.05,0,0,0.05,65,0)" xlink:href="#aG"/><use transform="matrix(0.05,0,0,0.05,75,0)" xlink:href="#aW"/><use transform="matrix(0.05,0,0,0.05,80.95,0)" xlink:href="#aM"/><use transform="matrix(0.05,0,0,0.05,90.95,0)" xlink:href="#aJ"/><use transform="matrix(0.05,0,0,0.05,100.95,0)" xlink:href="#aN"/><use transform="matrix(0.05,0,0,0.05,105.95,0)" xlink:href="#aG"/><use transform="matrix(0.05,0,0,0.05,115.95,0)" xlink:href="#aP"/></g><g id="n"><use transform="matrix(0.05,0,0,0.05,0,0)" xlink:href="#bb"/><use transform="matrix(0.05,0,0,0.05,12.950000000000001,0)" xlink:href="#aJ"/><use transform="matrix(0.05,0,0,0.05,22.950000000000003,0)" xlink:href="#aN"/><use transform="matrix(0.05,0,0,0.05,27.950000000000003,0)" xlink:href="#aG"/><use transform="matrix(0.05,0,0,0.05,37.95,0)" xlink:href="#aX"/><use transform="matrix(0.05,0,0,0.05,43.900000000000006,0)" xlink:href="#aP"/></g><g id="o"><use transform="matrix(0.05,0,0,0.05,0,0)" xlink:href="#aY"/><use transform="matrix(0.05,0,0,0.05,9,0)" xlink:href="#aJ"/><use transform="matrix(0.05,0,0,0.05,19,0)" xlink:href="#aR"/><use transform="matrix(0.05,0,0,0.05,22.95,0)" xlink:href="#aE"/></g><path d="M106-169C34-169 62-67 57 0H25v-261h32l-1 103c12-21 28-36 61-36 89 0 53 116 60 194h-32v-121c2-32-8-49-39-48" id="bc"/><path d="M115-194c53 0 69 39 70 98 0 66-23 100-70 100C84 3 66-7 56-30L54 0H23l1-261h32v101c10-23 28-34 59-34zm-8 174c40 0 45-34 45-75 0-40-5-75-45-74-42 0-51 32-51 76 0 43 10 73 51 73" id="bd"/><path d="M179-190L93 31C79 59 56 82 12 73V49c39 6 53-20 64-50L1-190h34L92-34l54-156h33" id="be"/><path d="M206 0h-36l-40-164L89 0H53L-1-190h32L70-26l43-164h34l41 164 42-164h31" id="bf"/><path d="M145-31C134-9 116 4 85 4 32 4 16-35 15-94c0-59 17-99 70-100 32-1 48 14 60 33 0-11-1-24 2-32h30l-1 268h-32zM93-21c41 0 51-33 51-76s-8-73-50-73c-40 0-46 35-46 75s5 74 45 74" id="bg"/><path d="M84 4C-5 8 30-112 23-190h32v120c0 31 7 50 39 49 72-2 45-101 50-169h31l1 190h-30c-1-10 1-25-2-33-11 22-28 36-60 37" id="bh"/><g id="p"><use transform="matrix(0.05,0,0,0.05,0,0)" xlink:href="#aH"/><use transform="matrix(0.05,0,0,0.05,9,0)" xlink:href="#aG"/><use transform="matrix(0.05,0,0,0.05,19,0)" xlink:href="#aO"/><use transform="matrix(0.05,0,0,0.05,29,0)" xlink:href="#aF"/><use transform="matrix(0.05,0,0,0.05,34.95,0)" xlink:href="#aL"/><use transform="matrix(0.05,0,0,0.05,43.95,0)" xlink:href="#bc"/><use transform="matrix(0.05,0,0,0.05,53.95,0)" xlink:href="#aV"/><use transform="matrix(0.05,0,0,0.05,63.95,0)" xlink:href="#aM"/><use transform="matrix(0.05,0,0,0.05,73.95,0)" xlink:href="#aJ"/><use transform="matrix(0.05,0,0,0.05,83.95,0)" xlink:href="#aN"/><use transform="matrix(0.05,0,0,0.05,88.95,0)" xlink:href="#aG"/><use transform="matrix(0.05,0,0,0.05,98.95,0)" xlink:href="#aH"/><use transform="matrix(0.05,0,0,0.05,107.95,0)" xlink:href="#aV"/><use transform="matrix(0.05,0,0,0.05,117.95,0)" xlink:href="#bd"/><use transform="matrix(0.05,0,0,0.05,127.95,0)" xlink:href="#be"/><use transform="matrix(0.05,0,0,0.05,136.95,0)" xlink:href="#aV"/><use transform="matrix(0.05,0,0,0.05,146.95,0)" xlink:href="#bf"/><use transform="matrix(0.05,0,0,0.05,159.89999999999998,0)" xlink:href="#aJ"/><use transform="matrix(0.05,0,0,0.05,169.89999999999998,0)" xlink:href="#aF"/><use transform="matrix(0.05,0,0,0.05,175.84999999999997,0)" xlink:href="#aE"/><use transform="matrix(0.05,0,0,0.05,185.84999999999997,0)" xlink:href="#aH"/><use transform="matrix(0.05,0,0,0.05,194.84999999999997,0)" xlink:href="#aW"/><use transform="matrix(0.05,0,0,0.05,200.79999999999995,0)" xlink:href="#bg"/><use transform="matrix(0.05,0,0,0.05,210.79999999999995,0)" xlink:href="#bh"/><use transform="matrix(0.05,0,0,0.05,220.79999999999995,0)" xlink:href="#aG"/><use transform="matrix(0.05,0,0,0.05,230.79999999999995,0)" xlink:href="#aF"/><use transform="matrix(0.05,0,0,0.05,236.74999999999991,0)" xlink:href="#be"/><use transform="matrix(0.05,0,0,0.05,245.74999999999991,0)" xlink:href="#aP"/></g><g id="q"><use transform="matrix(0.05,0,0,0.05,0,0)" xlink:href="#aQ"/><use transform="matrix(0.05,0,0,0.05,3.95,0)" xlink:href="#aR"/><use transform="matrix(0.05,0,0,0.05,7.9,0)" xlink:href="#aH"/><use transform="matrix(0.05,0,0,0.05,16.9,0)" xlink:href="#aN"/><use transform="matrix(0.05,0,0,0.05,21.9,0)" xlink:href="#aS"/><use transform="matrix(0.05,0,0,0.05,26.899999999999995,0)" xlink:href="#bb"/><use transform="matrix(0.05,0,0,0.05,39.85,0)" xlink:href="#aJ"/><use transform="matrix(0.05,0,0,0.05,49.85,0)" xlink:href="#aN"/><use transform="matrix(0.05,0,0,0.05,54.85,0)" xlink:href="#aG"/><use transform="matrix(0.05,0,0,0.05,64.85,0)" xlink:href="#aU"/></g><g id="r"><use transform="matrix(0.05,0,0,0.05,0,0)" xlink:href="#aH"/><use transform="matrix(0.05,0,0,0.05,9,0)" xlink:href="#aG"/><use transform="matrix(0.05,0,0,0.05,19,0)" xlink:href="#aO"/><use transform="matrix(0.05,0,0,0.05,29,0)" xlink:href="#aF"/><use transform="matrix(0.05,0,0,0.05,34.95,0)" xlink:href="#aL"/><use transform="matrix(0.05,0,0,0.05,43.95,0)" xlink:href="#bc"/><use transform="matrix(0.05,0,0,0.05,53.95,0)" xlink:href="#aV"/><use transform="matrix(0.05,0,0,0.05,63.95,0)" xlink:href="#aM"/><use transform="matrix(0.05,0,0,0.05,73.95,0)" xlink:href="#aJ"/><use transform="matrix(0.05,0,0,0.05,83.95,0)" xlink:href="#aN"/><use transform="matrix(0.05,0,0,0.05,88.95,0)" xlink:href="#aG"/><use transform="matrix(0.05,0,0,0.05,98.95,0)" xlink:href="#aH"/><use transform="matrix(0.05,0,0,0.05,107.95,0)" xlink:href="#aV"/><use transform="matrix(0.05,0,0,0.05,117.95,0)" xlink:href="#bd"/><use transform="matrix(0.05,0,0,0.05,127.95,0)" xlink:href="#be"/><use transform="matrix(0.05,0,0,0.05,136.95,0)" xlink:href="#aV"/><use transform="matrix(0.05,0,0,0.05,146.95,0)" xlink:href="#aN"/><use transform="matrix(0.05,0,0,0.05,151.95,0)" xlink:href="#aO"/><use transform="matrix(0.05,0,0,0.05,161.95,0)" xlink:href="#aZ"/><use transform="matrix(0.05,0,0,0.05,171.95,0)" xlink:href="#aW"/><use transform="matrix(0.05,0,0,0.05,177.89999999999998,0)" xlink:href="#aN"/><use transform="matrix(0.05,0,0,0.05,182.89999999999998,0)" xlink:href="#aO"/><use transform="matrix(0.05,0,0,0.05,192.89999999999998,0)" xlink:href="#aZ"/><use transform="matrix(0.05,0,0,0.05,202.89999999999998,0)" xlink:href="#aP"/></g><path d="M141 0L90-78 38 0H4l68-98-65-92h35l48 74 47-74h35l-64 92 68 98h-35" id="bi"/><g id="s"><use transform="matrix(0.05,0,0,0.05,0,0)" xlink:href="#aG"/><use transform="matrix(0.05,0,0,0.05,10,0)" xlink:href="#aE"/><use transform="matrix(0.05,0,0,0.05,20,0)" xlink:href="#aR"/><use transform="matrix(0.05,0,0,0.05,23.95,0)" xlink:href="#aN"/><use transform="matrix(0.05,0,0,0.05,28.950000000000003,0)" xlink:href="#aV"/><use transform="matrix(0.05,0,0,0.05,38.95,0)" xlink:href="#aM"/><use transform="matrix(0.05,0,0,0.05,48.95,0)" xlink:href="#aJ"/><use transform="matrix(0.05,0,0,0.05,58.95,0)" xlink:href="#aN"/><use transform="matrix(0.05,0,0,0.05,63.95,0)" xlink:href="#aG"/><use transform="matrix(0.05,0,0,0.05,73.95,0)" xlink:href="#aW"/><use transform="matrix(0.05,0,0,0.05,79.9,0)" xlink:href="#aJ"/><use transform="matrix(0.05,0,0,0.05,89.9,0)" xlink:href="#aQ"/><use transform="matrix(0.05,0,0,0.05,93.85000000000001,0)" xlink:href="#aE"/><use transform="matrix(0.05,0,0,0.05,103.85000000000001,0)" xlink:href="#aV"/><use transform="matrix(0.05,0,0,0.05,113.85000000000001,0)" xlink:href="#aN"/><use transform="matrix(0.05,0,0,0.05,118.85000000000001,0)" xlink:href="#aG"/><use transform="matrix(0.05,0,0,0.05,128.85000000000002,0)" xlink:href="#bi"/><use transform="matrix(0.05,0,0,0.05,137.85000000000002,0)" xlink:href="#aN"/><use transform="matrix(0.05,0,0,0.05,142.85000000000002,0)" xlink:href="#aP"/></g><path d="M68-38c1 34 0 65-14 84H32c9-13 17-26 17-46H33v-38h35" id="bj"/><g id="t"><use transform="matrix(0.05,0,0,0.05,0,0)" xlink:href="#aH"/><use transform="matrix(0.05,0,0,0.05,9,0)" xlink:href="#aN"/><use transform="matrix(0.05,0,0,0.05,14,0)" xlink:href="#aF"/><use transform="matrix(0.05,0,0,0.05,18.95,0)" xlink:href="#bj"/></g><g id="u"><use transform="matrix(0.05,0,0,0.05,0,0)" xlink:href="#aM"/><use transform="matrix(0.05,0,0,0.05,10,0)" xlink:href="#aG"/><use transform="matrix(0.05,0,0,0.05,20,0)" xlink:href="#bf"/><use transform="matrix(0.05,0,0,0.05,32.95,0)" xlink:href="#aV"/><use transform="matrix(0.05,0,0,0.05,42.95,0)" xlink:href="#aN"/><use transform="matrix(0.05,0,0,0.05,47.95,0)" xlink:href="#aG"/><use transform="matrix(0.05,0,0,0.05,57.95,0)" xlink:href="#bi"/><use transform="matrix(0.05,0,0,0.05,66.95,0)" xlink:href="#aN"/><use transform="matrix(0.05,0,0,0.05,71.95,0)" xlink:href="#aP"/></g><g id="v"><use transform="matrix(0.05,0,0,0.05,0,0)" xlink:href="#aH"/><use transform="matrix(0.05,0,0,0.05,9,0)" xlink:href="#aN"/><use transform="matrix(0.05,0,0,0.05,14,0)" xlink:href="#aF"/></g><g id="w"><use transform="matrix(0.05,0,0,0.05,0,0)" xlink:href="#aE"/><use transform="matrix(0.05,0,0,0.05,10,0)" xlink:href="#aG"/><use transform="matrix(0.05,0,0,0.05,20,0)" xlink:href="#aQ"/><use transform="matrix(0.05,0,0,0.05,23.95,0)" xlink:href="#aG"/><use transform="matrix(0.05,0,0,0.05,33.95,0)" xlink:href="#aN"/><use transform="matrix(0.05,0,0,0.05,38.95,0)" xlink:href="#aG"/><use transform="matrix(0.05,0,0,0.05,48.95,0)" xlink:href="#aV"/><use transform="matrix(0.05,0,0,0.05,58.95,0)" xlink:href="#aM"/><use transform="matrix(0.05,0,0,0.05,68.95,0)" xlink:href="#aJ"/><use transform="matrix(0.05,0,0,0.05,78.95,0)" xlink:href="#aN"/><use transform="matrix(0.05,0,0,0.05,83.95,0)" xlink:href="#aG"/><use transform="matrix(0.05,0,0,0.05,93.95,0)" xlink:href="#aV"/><use transform="matrix(0.05,0,0,0.05,103.95,0)" xlink:href="#bd"/><use transform="matrix(0.05,0,0,0.05,113.95,0)" xlink:href="#be"/><use transform="matrix(0.05,0,0,0.05,122.95,0)" xlink:href="#aV"/><use transform="matrix(0.05,0,0,0.05,132.95,0)" xlink:href="#aN"/><use transform="matrix(0.05,0,0,0.05,137.95,0)" xlink:href="#aG"/><use transform="matrix(0.05,0,0,0.05,147.95,0)" xlink:href="#bi"/><use transform="matrix(0.05,0,0,0.05,156.95,0)" xlink:href="#aN"/><use transform="matrix(0.05,0,0,0.05,161.95,0)" xlink:href="#aW"/><use transform="matrix(0.05,0,0,0.05,167.89999999999998,0)" xlink:href="#aN"/><use transform="matrix(0.05,0,0,0.05,172.89999999999998,0)" xlink:href="#aG"/><use transform="matrix(0.05,0,0,0.05,182.89999999999998,0)" xlink:href="#bi"/><use transform="matrix(0.05,0,0,0.05,191.89999999999998,0)" xlink:href="#aN"/><use transform="matrix(0.05,0,0,0.05,196.89999999999998,0)" xlink:href="#aP"/></g><g id="x"><use transform="matrix(0.05,0,0,0.05,0,0)" xlink:href="#aO"/><use transform="matrix(0.05,0,0,0.05,10,0)" xlink:href="#aE"/><use transform="matrix(0.05,0,0,0.05,20,0)" xlink:href="#aE"/><use transform="matrix(0.05,0,0,0.05,30,0)" xlink:href="#aV"/><use transform="matrix(0.05,0,0,0.05,40,0)" xlink:href="#aN"/><use transform="matrix(0.05,0,0,0.05,45,0)" xlink:href="#aO"/><use transform="matrix(0.05,0,0,0.05,55,0)" xlink:href="#aZ"/><use transform="matrix(0.05,0,0,0.05,65,0)" xlink:href="#aV"/><use transform="matrix(0.05,0,0,0.05,75,0)" xlink:href="#aN"/><use transform="matrix(0.05,0,0,0.05,80,0)" xlink:href="#aJ"/><use transform="matrix(0.05,0,0,0.05,90,0)" xlink:href="#aV"/><use transform="matrix(0.05,0,0,0.05,100,0)" xlink:href="#aM"/><use transform="matrix(0.05,0,0,0.05,110,0)" xlink:href="#aJ"/><use transform="matrix(0.05,0,0,0.05,120,0)" xlink:href="#aN"/><use transform="matrix(0.05,0,0,0.05,125,0)" xlink:href="#aG"/><use transform="matrix(0.05,0,0,0.05,135,0)" xlink:href="#aW"/><use transform="matrix(0.05,0,0,0.05,140.95,0)" xlink:href="#aM"/><use transform="matrix(0.05,0,0,0.05,150.95,0)" xlink:href="#aJ"/><use transform="matrix(0.05,0,0,0.05,160.95,0)" xlink:href="#aN"/><use transform="matrix(0.05,0,0,0.05,165.95,0)" xlink:href="#aG"/><use transform="matrix(0.05,0,0,0.05,175.95,0)" xlink:href="#aV"/><use transform="matrix(0.05,0,0,0.05,185.95,0)" xlink:href="#aN"/><use transform="matrix(0.05,0,0,0.05,190.95,0)" xlink:href="#aG"/><use transform="matrix(0.05,0,0,0.05,200.95,0)" xlink:href="#bi"/><use transform="matrix(0.05,0,0,0.05,209.94999999999996,0)" xlink:href="#aN"/><use transform="matrix(0.05,0,0,0.05,214.94999999999996,0)" xlink:href="#aP"/></g><g id="y"><use transform="matrix(0.05,0,0,0.05,0,0)" xlink:href="#aN"/><use transform="matrix(0.05,0,0,0.05,5,0)" xlink:href="#aO"/><use transform="matrix(0.05,0,0,0.05,15,0)" xlink:href="#aZ"/><use transform="matrix(0.05,0,0,0.05,25,0)" xlink:href="#aP"/></g><g id="z"><use transform="matrix(0.05,0,0,0.05,0,0)" xlink:href="#aN"/><use transform="matrix(0.05,0,0,0.05,5,0)" xlink:href="#aJ"/><use transform="matrix(0.05,0,0,0.05,15,0)" xlink:href="#aV"/><use transform="matrix(0.05,0,0,0.05,25,0)" xlink:href="#aE"/><use transform="matrix(0.05,0,0,0.05,35,0)" xlink:href="#aR"/><use transform="matrix(0.05,0,0,0.05,38.95,0)" xlink:href="#aL"/><use transform="matrix(0.05,0,0,0.05,47.95,0)" xlink:href="#aN"/><use transform="matrix(0.05,0,0,0.05,52.95,0)" xlink:href="#aW"/><use transform="matrix(0.05,0,0,0.05,58.900000000000006,0)" xlink:href="#aX"/><use transform="matrix(0.05,0,0,0.05,64.85000000000001,0)" xlink:href="#aP"/></g><g id="A"><use transform="matrix(0.05,0,0,0.05,0,0)" xlink:href="#aE"/><use transform="matrix(0.05,0,0,0.05,10,0)" xlink:href="#aR"/><use transform="matrix(0.05,0,0,0.05,13.949999999999998,0)" xlink:href="#aL"/><use transform="matrix(0.05,0,0,0.05,22.95,0)" xlink:href="#aN"/></g><path d="M101-234c-31-9-42 10-38 44h38v23H63V0H32v-167H5v-23h27c-7-52 17-82 69-68v24" id="bk"/><g id="B"><use transform="matrix(0.05,0,0,0.05,0,0)" xlink:href="#bk"/><use transform="matrix(0.05,0,0,0.05,5,0)" xlink:href="#aF"/><use transform="matrix(0.05,0,0,0.05,10.95,0)" xlink:href="#aJ"/><use transform="matrix(0.05,0,0,0.05,20.95,0)" xlink:href="#ba"/><use transform="matrix(0.05,0,0,0.05,35.9,0)" xlink:href="#aV"/><use transform="matrix(0.05,0,0,0.05,45.9,0)" xlink:href="#aE"/><use transform="matrix(0.05,0,0,0.05,55.900000000000006,0)" xlink:href="#aR"/><use transform="matrix(0.05,0,0,0.05,59.85,0)" xlink:href="#aL"/><use transform="matrix(0.05,0,0,0.05,68.85,0)" xlink:href="#aN"/><use transform="matrix(0.05,0,0,0.05,73.85,0)" xlink:href="#aW"/><use transform="matrix(0.05,0,0,0.05,79.8,0)" xlink:href="#aE"/><use transform="matrix(0.05,0,0,0.05,89.8,0)" xlink:href="#aO"/><use transform="matrix(0.05,0,0,0.05,99.8,0)" xlink:href="#aN"/><use transform="matrix(0.05,0,0,0.05,104.80000000000001,0)" xlink:href="#aO"/><use transform="matrix(0.05,0,0,0.05,114.80000000000001,0)" xlink:href="#aP"/></g><g id="C"><use transform="matrix(0.05,0,0,0.05,0,0)" xlink:href="#aE"/><use transform="matrix(0.05,0,0,0.05,10,0)" xlink:href="#aR"/><use transform="matrix(0.05,0,0,0.05,13.949999999999998,0)" xlink:href="#aL"/><use transform="matrix(0.05,0,0,0.05,22.95,0)" xlink:href="#aN"/><use transform="matrix(0.05,0,0,0.05,27.950000000000003,0)" xlink:href="#aX"/></g><g id="D"><use transform="matrix(0.05,0,0,0.05,0,0)" xlink:href="#aT"/><use transform="matrix(0.05,0,0,0.05,12.950000000000001,0)" xlink:href="#aG"/><use transform="matrix(0.05,0,0,0.05,22.950000000000003,0)" xlink:href="#aL"/><use transform="matrix(0.05,0,0,0.05,31.950000000000003,0)" xlink:href="#aJ"/><use transform="matrix(0.05,0,0,0.05,41.95,0)" xlink:href="#aF"/><use transform="matrix(0.05,0,0,0.05,47.900000000000006,0)" xlink:href="#aE"/></g><g id="E"><use transform="matrix(0.05,0,0,0.05,0,0)" xlink:href="#aM"/><use transform="matrix(0.05,0,0,0.05,10,0)" xlink:href="#aO"/><use transform="matrix(0.05,0,0,0.05,20,0)" xlink:href="#ba"/><use transform="matrix(0.05,0,0,0.05,34.95,0)" xlink:href="#aG"/><use transform="matrix(0.05,0,0,0.05,44.95,0)" xlink:href="#aP"/></g><g id="F"><use transform="matrix(0.05,0,0,0.05,0,0)" xlink:href="#bb"/><use transform="matrix(0.05,0,0,0.05,12.950000000000001,0)" xlink:href="#aO"/><use transform="matrix(0.05,0,0,0.05,22.950000000000003,0)" xlink:href="#ba"/><use transform="matrix(0.05,0,0,0.05,37.900000000000006,0)" xlink:href="#aG"/></g><path d="M115-194c55 1 70 41 70 98S169 2 115 4C84 4 66-9 55-30l1 105H24l-1-265h31l2 30c10-21 28-34 59-34zm-8 174c40 0 45-34 45-75s-6-73-45-74c-42 0-51 32-51 76 0 43 10 73 51 73" id="bl"/><g id="G"><use transform="matrix(0.05,0,0,0.05,0,0)" xlink:href="#bl"/><use transform="matrix(0.05,0,0,0.05,10,0)" xlink:href="#bc"/><use transform="matrix(0.05,0,0,0.05,20,0)" xlink:href="#aJ"/><use transform="matrix(0.05,0,0,0.05,30,0)" xlink:href="#aM"/><use transform="matrix(0.05,0,0,0.05,40,0)" xlink:href="#aG"/><use transform="matrix(0.05,0,0,0.05,50,0)" xlink:href="#aH"/><use transform="matrix(0.05,0,0,0.05,59,0)" xlink:href="#aP"/></g><path d="M30-248c87 1 191-15 191 75 0 78-77 80-158 76V0H30v-248zm33 125c57 0 124 11 124-50 0-59-68-47-124-48v98" id="bm"/><g id="H"><use transform="matrix(0.05,0,0,0.05,0,0)" xlink:href="#aQ"/><use transform="matrix(0.05,0,0,0.05,3.95,0)" xlink:href="#aR"/><use transform="matrix(0.05,0,0,0.05,7.9,0)" xlink:href="#aH"/><use transform="matrix(0.05,0,0,0.05,16.9,0)" xlink:href="#aN"/><use transform="matrix(0.05,0,0,0.05,21.9,0)" xlink:href="#aS"/><use transform="matrix(0.05,0,0,0.05,26.899999999999995,0)" xlink:href="#bm"/><use transform="matrix(0.05,0,0,0.05,38.9,0)" xlink:href="#bc"/><use transform="matrix(0.05,0,0,0.05,48.9,0)" xlink:href="#aJ"/><use transform="matrix(0.05,0,0,0.05,58.900000000000006,0)" xlink:href="#aM"/><use transform="matrix(0.05,0,0,0.05,68.9,0)" xlink:href="#aG"/><use transform="matrix(0.05,0,0,0.05,78.9,0)" xlink:href="#aU"/></g><g id="I"><use transform="matrix(0.05,0,0,0.05,0,0)" xlink:href="#bd"/><use transform="matrix(0.05,0,0,0.05,10,0)" xlink:href="#aR"/><use transform="matrix(0.05,0,0,0.05,13.949999999999998,0)" xlink:href="#aF"/><use transform="matrix(0.05,0,0,0.05,19.9,0)" xlink:href="#aN"/><use transform="matrix(0.05,0,0,0.05,24.9,0)" xlink:href="#bc"/><use transform="matrix(0.05,0,0,0.05,34.9,0)" xlink:href="#aE"/><use transform="matrix(0.05,0,0,0.05,44.9,0)" xlink:href="#aO"/><use transform="matrix(0.05,0,0,0.05,54.900000000000006,0)" xlink:href="#be"/><use transform="matrix(0.05,0,0,0.05,63.900000000000006,0)" xlink:href="#aP"/></g><g id="J"><use transform="matrix(0.05,0,0,0.05,0,0)" xlink:href="#aI"/><use transform="matrix(0.05,0,0,0.05,12,0)" xlink:href="#aR"/><use transform="matrix(0.05,0,0,0.05,15.949999999999998,0)" xlink:href="#aF"/><use transform="matrix(0.05,0,0,0.05,21.9,0)" xlink:href="#aN"/><use transform="matrix(0.05,0,0,0.05,26.899999999999995,0)" xlink:href="#bc"/><use transform="matrix(0.05,0,0,0.05,36.9,0)" xlink:href="#aE"/><use transform="matrix(0.05,0,0,0.05,46.9,0)" xlink:href="#aO"/><use transform="matrix(0.05,0,0,0.05,56.900000000000006,0)" xlink:href="#be"/></g><g id="K"><use transform="matrix(0.05,0,0,0.05,0,0)" xlink:href="#aO"/><use transform="matrix(0.05,0,0,0.05,10,0)" xlink:href="#aE"/><use transform="matrix(0.05,0,0,0.05,20,0)" xlink:href="#aF"/><use transform="matrix(0.05,0,0,0.05,25.950000000000003,0)" xlink:href="#aG"/><use transform="matrix(0.05,0,0,0.05,35.95,0)" xlink:href="#aH"/><use transform="matrix(0.05,0,0,0.05,44.95,0)" xlink:href="#aH"/><use transform="matrix(0.05,0,0,0.05,53.95,0)" xlink:href="#aP"/></g><g id="L"><use transform="matrix(0.05,0,0,0.05,0,0)" xlink:href="#aD"/><use transform="matrix(0.05,0,0,0.05,12,0)" xlink:href="#aE"/><use transform="matrix(0.05,0,0,0.05,22,0)" xlink:href="#aE"/><use transform="matrix(0.05,0,0,0.05,32,0)" xlink:href="#aF"/><use transform="matrix(0.05,0,0,0.05,37.95,0)" xlink:href="#aG"/><use transform="matrix(0.05,0,0,0.05,47.95,0)" xlink:href="#aH"/><use transform="matrix(0.05,0,0,0.05,56.95,0)" xlink:href="#aH"/></g><g id="M"><use transform="matrix(0.05,0,0,0.05,0,0)" xlink:href="#aG"/><use transform="matrix(0.05,0,0,0.05,10,0)" xlink:href="#ba"/><use transform="matrix(0.05,0,0,0.05,24.950000000000003,0)" xlink:href="#aO"/><use transform="matrix(0.05,0,0,0.05,34.95,0)" xlink:href="#aR"/><use transform="matrix(0.05,0,0,0.05,38.900000000000006,0)" xlink:href="#aQ"/><use transform="matrix(0.05,0,0,0.05,42.85000000000001,0)" xlink:href="#aP"/></g><path d="M30 0v-248h187v28H63v79h144v27H63v87h162V0H30" id="bn"/><g id="N"><use transform="matrix(0.05,0,0,0.05,0,0)" xlink:href="#bn"/><use transform="matrix(0.05,0,0,0.05,12,0)" xlink:href="#ba"/><use transform="matrix(0.05,0,0,0.05,26.950000000000003,0)" xlink:href="#aO"/><use transform="matrix(0.05,0,0,0.05,36.95,0)" xlink:href="#aR"/><use transform="matrix(0.05,0,0,0.05,40.900000000000006,0)" xlink:href="#aQ"/></g><g id="O"><use transform="matrix(0.05,0,0,0.05,0,0)" xlink:href="#aO"/><use transform="matrix(0.05,0,0,0.05,10,0)" xlink:href="#aE"/><use transform="matrix(0.05,0,0,0.05,20,0)" xlink:href="#aE"/><use transform="matrix(0.05,0,0,0.05,30,0)" xlink:href="#aV"/><use transform="matrix(0.05,0,0,0.05,40,0)" xlink:href="#bl"/><use transform="matrix(0.05,0,0,0.05,50,0)" xlink:href="#bc"/><use transform="matrix(0.05,0,0,0.05,60,0)" xlink:href="#aJ"/><use transform="matrix(0.05,0,0,0.05,70,0)" xlink:href="#aM"/><use transform="matrix(0.05,0,0,0.05,80,0)" xlink:href="#aG"/><use transform="matrix(0.05,0,0,0.05,90,0)" xlink:href="#aW"/><use transform="matrix(0.05,0,0,0.05,95.95,0)" xlink:href="#bl"/><use transform="matrix(0.05,0,0,0.05,105.95,0)" xlink:href="#bc"/><use transform="matrix(0.05,0,0,0.05,115.95,0)" xlink:href="#aJ"/><use transform="matrix(0.05,0,0,0.05,125.95,0)" xlink:href="#aM"/><use transform="matrix(0.05,0,0,0.05,135.95,0)" xlink:href="#aG"/><use transform="matrix(0.05,0,0,0.05,145.95,0)" xlink:href="#aP"/></g><g id="P"><use transform="matrix(0.05,0,0,0.05,0,0)" xlink:href="#bm"/><use transform="matrix(0.05,0,0,0.05,12,0)" xlink:href="#bc"/><use transform="matrix(0.05,0,0,0.05,22,0)" xlink:href="#aJ"/><use transform="matrix(0.05,0,0,0.05,32,0)" xlink:href="#aM"/><use transform="matrix(0.05,0,0,0.05,42,0)" xlink:href="#aG"/><use transform="matrix(0.05,0,0,0.05,52,0)" xlink:href="#aX"/><use transform="matrix(0.05,0,0,0.05,57.95,0)" xlink:href="#aP"/></g><g id="Q"><use transform="matrix(0.05,0,0,0.05,0,0)" xlink:href="#aG"/><use transform="matrix(0.05,0,0,0.05,10,0)" xlink:href="#aE"/><use transform="matrix(0.05,0,0,0.05,20,0)" xlink:href="#aR"/><use transform="matrix(0.05,0,0,0.05,23.95,0)" xlink:href="#aN"/><use transform="matrix(0.05,0,0,0.05,28.950000000000003,0)" xlink:href="#aV"/><use transform="matrix(0.05,0,0,0.05,38.95,0)" xlink:href="#bl"/><use transform="matrix(0.05,0,0,0.05,48.95,0)" xlink:href="#bc"/><use transform="matrix(0.05,0,0,0.05,58.95,0)" xlink:href="#aJ"/><use transform="matrix(0.05,0,0,0.05,68.95,0)" xlink:href="#aM"/><use transform="matrix(0.05,0,0,0.05,78.95,0)" xlink:href="#aG"/><use transform="matrix(0.05,0,0,0.05,88.95,0)" xlink:href="#aW"/><use transform="matrix(0.05,0,0,0.05,94.9,0)" xlink:href="#bl"/><use transform="matrix(0.05,0,0,0.05,104.9,0)" xlink:href="#aQ"/><use transform="matrix(0.05,0,0,0.05,108.85000000000001,0)" xlink:href="#aE"/><use transform="matrix(0.05,0,0,0.05,118.85000000000001,0)" xlink:href="#aV"/><use transform="matrix(0.05,0,0,0.05,128.85000000000002,0)" xlink:href="#bl"/><use transform="matrix(0.05,0,0,0.05,138.85000000000002,0)" xlink:href="#bc"/><use transform="matrix(0.05,0,0,0.05,148.85000000000002,0)" xlink:href="#aJ"/><use transform="matrix(0.05,0,0,0.05,158.85000000000002,0)" xlink:href="#aM"/><use transform="matrix(0.05,0,0,0.05,168.85000000000002,0)" xlink:href="#aG"/><use transform="matrix(0.05,0,0,0.05,178.85000000000002,0)" xlink:href="#aP"/></g><g id="R"><use transform="matrix(0.05,0,0,0.05,0,0)" xlink:href="#bm"/><use transform="matrix(0.05,0,0,0.05,12,0)" xlink:href="#bc"/><use transform="matrix(0.05,0,0,0.05,22,0)" xlink:href="#aJ"/><use transform="matrix(0.05,0,0,0.05,32,0)" xlink:href="#aM"/><use transform="matrix(0.05,0,0,0.05,42,0)" xlink:href="#aG"/><use transform="matrix(0.05,0,0,0.05,52,0)" xlink:href="#bj"/></g><g id="S"><use transform="matrix(0.05,0,0,0.05,0,0)" xlink:href="#aM"/><use transform="matrix(0.05,0,0,0.05,10,0)" xlink:href="#aG"/><use transform="matrix(0.05,0,0,0.05,20,0)" xlink:href="#bf"/><use transform="matrix(0.05,0,0,0.05,32.95,0)" xlink:href="#aV"/><use transform="matrix(0.05,0,0,0.05,42.95,0)" xlink:href="#bl"/><use transform="matrix(0.05,0,0,0.05,52.95,0)" xlink:href="#bc"/><use transform="matrix(0.05,0,0,0.05,62.95,0)" xlink:href="#aJ"/><use transform="matrix(0.05,0,0,0.05,72.95,0)" xlink:href="#aM"/><use transform="matrix(0.05,0,0,0.05,82.95,0)" xlink:href="#aG"/><use transform="matrix(0.05,0,0,0.05,92.95,0)" xlink:href="#aP"/></g><g id="T"><use transform="matrix(0.05,0,0,0.05,0,0)" xlink:href="#aE"/><use transform="matrix(0.05,0,0,0.05,10,0)" xlink:href="#aG"/><use transform="matrix(0.05,0,0,0.05,20,0)" xlink:href="#aQ"/><use transform="matrix(0.05,0,0,0.05,23.95,0)" xlink:href="#aV"/><use transform="matrix(0.05,0,0,0.05,33.95,0)" xlink:href="#bl"/><use transform="matrix(0.05,0,0,0.05,43.95,0)" xlink:href="#bc"/><use transform="matrix(0.05,0,0,0.05,53.95,0)" xlink:href="#aJ"/><use transform="matrix(0.05,0,0,0.05,63.95,0)" xlink:href="#aM"/><use transform="matrix(0.05,0,0,0.05,73.95,0)" xlink:href="#aG"/><use transform="matrix(0.05,0,0,0.05,83.95,0)" xlink:href="#aW"/><use transform="matrix(0.05,0,0,0.05,89.9,0)" xlink:href="#bl"/><use transform="matrix(0.05,0,0,0.05,99.9,0)" xlink:href="#bc"/><use transform="matrix(0.05,0,0,0.05,109.9,0)" xlink:href="#aJ"/><use transform="matrix(0.05,0,0,0.05,119.9,0)" xlink:href="#aM"/><use transform="matrix(0.05,0,0,0.05,129.9,0)" xlink:href="#aG"/><use transform="matrix(0.05,0,0,0.05,139.9,0)" xlink:href="#aP"/></g><g id="U"><use transform="matrix(0.05,0,0,0.05,0,0)" xlink:href="#aE"/><use transform="matrix(0.05,0,0,0.05,10,0)" xlink:href="#aO"/><use transform="matrix(0.05,0,0,0.05,20,0)" xlink:href="#be"/><use transform="matrix(0.05,0,0,0.05,29,0)" xlink:href="#aH"/><use transform="matrix(0.05,0,0,0.05,38,0)" xlink:href="#aV"/><use transform="matrix(0.05,0,0,0.05,48,0)" xlink:href="#aN"/><use transform="matrix(0.05,0,0,0.05,53,0)" xlink:href="#aJ"/><use transform="matrix(0.05,0,0,0.05,63,0)" xlink:href="#aV"/><use transform="matrix(0.05,0,0,0.05,73,0)" xlink:href="#bd"/><use transform="matrix(0.05,0,0,0.05,83,0)" xlink:href="#aR"/><use transform="matrix(0.05,0,0,0.05,86.95,0)" xlink:href="#aF"/><use transform="matrix(0.05,0,0,0.05,92.9,0)" xlink:href="#aN"/><use transform="matrix(0.05,0,0,0.05,97.9,0)" xlink:href="#bc"/><use transform="matrix(0.05,0,0,0.05,107.9,0)" xlink:href="#aE"/><use transform="matrix(0.05,0,0,0.05,117.9,0)" xlink:href="#aO"/><use transform="matrix(0.05,0,0,0.05,127.9,0)" xlink:href="#be"/><use transform="matrix(0.05,0,0,0.05,136.9,0)" xlink:href="#aW"/><use transform="matrix(0.05,0,0,0.05,142.85,0)" xlink:href="#aX"/><use transform="matrix(0.05,0,0,0.05,148.79999999999998,0)" xlink:href="#aP"/></g><g id="V"><use transform="matrix(0.05,0,0,0.05,0,0)" xlink:href="#aR"/><use transform="matrix(0.05,0,0,0.05,3.95,0)" xlink:href="#aM"/><use transform="matrix(0.05,0,0,0.05,13.949999999999998,0)" xlink:href="#aN"/></g><path fill="#333" d="M175 0L67-191c6 58 2 128 3 191H24v-248h59L193-55c-6-58-2-129-3-193h46V0h-61" id="bo"/><path fill="#333" d="M110-194c64 0 96 36 96 99 0 64-35 99-97 99-61 0-95-36-95-99 0-62 34-99 96-99zm-1 164c35 0 45-28 45-65 0-40-10-65-43-65-34 0-45 26-45 65 0 36 10 65 43 65" id="bp"/><path fill="#333" d="M115-3C79 11 28 4 28-45v-112H4v-33h27l15-45h31v45h36v33H77v99c-1 23 16 31 38 25v30" id="bq"/><path fill="#333" d="M185-48c-13 30-37 53-82 52C43 2 14-33 14-96s30-98 90-98c62 0 83 45 84 108H66c0 31 8 55 39 56 18 0 30-7 34-22zm-45-69c5-46-57-63-70-21-2 6-4 13-4 21h74" id="br"/><g id="W"><use transform="matrix(0.05,0,0,0.05,0,0)" xlink:href="#bo"/><use transform="matrix(0.05,0,0,0.05,12.950000000000001,0)" xlink:href="#bp"/><use transform="matrix(0.05,0,0,0.05,23.900000000000002,0)" xlink:href="#bq"/><use transform="matrix(0.05,0,0,0.05,29.85,0)" xlink:href="#br"/></g><path fill="#333" d="M59-47c-2 24 18 29 38 22v24C64 9 27 4 27-40v-127H5v-23h24l9-43h21v43h35v23H59v120" id="bs"/><path fill="#333" d="M100-194c63 0 86 42 84 106H49c0 40 14 67 53 68 26 1 43-12 49-29l28 8c-11 28-37 45-77 45C44 4 14-33 15-96c1-61 26-98 85-98zm52 81c6-60-76-77-97-28-3 7-6 17-6 28h103" id="bt"/><path fill="#333" d="M141 0L90-78 38 0H4l68-98-65-92h35l48 74 47-74h35l-64 92 68 98h-35" id="bu"/><path fill="#333" d="M33-154v-36h34v36H33zM33 0v-36h34V0H33" id="bv"/><g id="X"><use transform="matrix(0.05,0,0,0.05,0,0)" xlink:href="#bs"/><use transform="matrix(0.05,0,0,0.05,5,0)" xlink:href="#bt"/><use transform="matrix(0.05,0,0,0.05,15,0)" xlink:href="#bu"/><use transform="matrix(0.05,0,0,0.05,24,0)" xlink:href="#bs"/><use transform="matrix(0.05,0,0,0.05,29,0)" xlink:href="#bv"/></g><path fill="#333" d="M135-143c-3-34-86-38-87 0 15 53 115 12 119 90S17 21 10-45l28-5c4 36 97 45 98 0-10-56-113-15-118-90-4-57 82-63 122-42 12 7 21 19 24 35" id="bw"/><path fill="#333" d="M114-163C36-179 61-72 57 0H25l-1-190h30c1 12-1 29 2 39 6-27 23-49 58-41v29" id="bx"/><g id="Y"><use transform="matrix(0.05,0,0,0.05,0,0)" xlink:href="#bw"/><use transform="matrix(0.05,0,0,0.05,9,0)" xlink:href="#bs"/><use transform="matrix(0.05,0,0,0.05,14,0)" xlink:href="#bx"/></g><path fill="#333" d="M141-36C126-15 110 5 73 4 37 3 15-17 15-53c-1-64 63-63 125-63 3-35-9-54-41-54-24 1-41 7-42 31l-33-3c5-37 33-52 76-52 45 0 72 20 72 64v82c-1 20 7 32 28 27v20c-31 9-61-2-59-35zM48-53c0 20 12 33 32 33 41-3 63-29 60-74-43 2-92-5-92 41" id="by"/><path fill="#333" d="M177-190C167-65 218 103 67 71c-23-6-38-20-44-43l32-5c15 47 100 32 89-28v-30C133-14 115 1 83 1 29 1 15-40 15-95c0-56 16-97 71-98 29-1 48 16 59 35 1-10 0-23 2-32h30zM94-22c36 0 50-32 50-73 0-42-14-75-50-75-39 0-46 34-46 75s6 73 46 73" id="bz"/><g id="Z"><use transform="matrix(0.05,0,0,0.05,0,0)" xlink:href="#bs"/><use transform="matrix(0.05,0,0,0.05,5,0)" xlink:href="#by"/><use transform="matrix(0.05,0,0,0.05,15,0)" xlink:href="#bz"/><use transform="matrix(0.05,0,0,0.05,25,0)" xlink:href="#bw"/><use transform="matrix(0.05,0,0,0.05,34,0)" xlink:href="#bv"/></g><path fill="#333" d="M24 0v-261h32V0H24" id="bA"/><path fill="#333" d="M24-231v-30h32v30H24zM24 0v-190h32V0H24" id="bB"/><g id="aa"><use transform="matrix(0.05,0,0,0.05,0,0)" xlink:href="#bA"/><use transform="matrix(0.05,0,0,0.05,3.95,0)" xlink:href="#bB"/><use transform="matrix(0.05,0,0,0.05,7.9,0)" xlink:href="#bw"/><use transform="matrix(0.05,0,0,0.05,16.9,0)" xlink:href="#bs"/></g><path fill="#333" d="M220-157c-53 9-28 100-34 157h-49v-107c1-27-5-49-29-50C55-147 81-57 75 0H25l-1-190h47c2 12-1 28 3 38 10-53 101-56 108 0 13-22 24-43 59-42 82 1 51 116 57 194h-49v-107c-1-25-5-48-29-50" id="bC"/><path fill="#333" d="M133-34C117-15 103 5 69 4 32 3 11-16 11-54c-1-60 55-63 116-61 1-26-3-47-28-47-18 1-26 9-28 27l-52-2c7-38 36-58 82-57s74 22 75 68l1 82c-1 14 12 18 25 15v27c-30 8-71 5-69-32zm-48 3c29 0 43-24 42-57-32 0-66-3-65 30 0 17 8 27 23 27" id="bD"/><path fill="#333" d="M25-224v-37h50v37H25zM25 0v-190h50V0H25" id="bE"/><path fill="#333" d="M135-194c87-1 58 113 63 194h-50c-7-57 23-157-34-157-59 0-34 97-39 157H25l-1-190h47c2 12-1 28 3 38 12-26 28-41 61-42" id="bF"/><g id="ab"><use transform="matrix(0.05,0,0,0.05,0,0)" xlink:href="#bC"/><use transform="matrix(0.05,0,0,0.05,16,0)" xlink:href="#bD"/><use transform="matrix(0.05,0,0,0.05,26,0)" xlink:href="#bE"/><use transform="matrix(0.05,0,0,0.05,31,0)" xlink:href="#bF"/></g><path fill="#333" d="M106-169C34-169 62-67 57 0H25v-261h32l-1 103c12-21 28-36 61-36 89 0 53 116 60 194h-32v-121c2-32-8-49-39-48" id="bG"/><path fill="#333" d="M100-194c62-1 85 37 85 99 1 63-27 99-86 99S16-35 15-95c0-66 28-99 85-99zM99-20c44 1 53-31 53-75 0-43-8-75-51-75s-53 32-53 75 10 74 51 75" id="bH"/><path fill="#333" d="M87 75C49 33 22-17 22-94c0-76 28-126 65-167h31c-38 41-64 92-64 168S80 34 118 75H87" id="bI"/><path fill="#333" d="M33-261c38 41 65 92 65 168S71 34 33 75H2C39 34 66-17 66-93S39-220 2-261h31" id="bJ"/><g id="ac"><use transform="matrix(0.05,0,0,0.05,0,0)" xlink:href="#bG"/><use transform="matrix(0.05,0,0,0.05,10,0)" xlink:href="#bt"/><use transform="matrix(0.05,0,0,0.05,20,0)" xlink:href="#bA"/><use transform="matrix(0.05,0,0,0.05,23.95,0)" xlink:href="#bA"/><use transform="matrix(0.05,0,0,0.05,27.899999999999995,0)" xlink:href="#bH"/><use transform="matrix(0.05,0,0,0.05,37.9,0)" xlink:href="#bI"/><use transform="matrix(0.05,0,0,0.05,43.85,0)" xlink:href="#bJ"/><use transform="matrix(0.05,0,0,0.05,49.800000000000004,0)" xlink:href="#bv"/></g><path fill="#333" d="M85-194c31 0 48 13 60 33l-1-100h32l1 261h-30c-2-10 0-23-3-31C134-8 116 4 85 4 32 4 16-35 15-94c0-66 23-100 70-100zm9 24c-40 0-46 34-46 75 0 40 6 74 45 74 42 0 51-32 51-76 0-42-9-74-50-73" id="bK"/><path fill="#333" d="M-5 72V49h209v23H-5" id="bL"/><path fill="#333" d="M96-169c-40 0-48 33-48 73s9 75 48 75c24 0 41-14 43-38l32 2c-6 37-31 61-74 61-59 0-76-41-82-99-10-93 101-131 147-64 4 7 5 14 7 22l-32 3c-4-21-16-35-41-35" id="bM"/><path fill="#333" d="M117-194c89-4 53 116 60 194h-32v-121c0-31-8-49-39-48C34-167 62-67 57 0H25l-1-190h30c1 10-1 24 2 32 11-22 29-35 61-36" id="bN"/><g id="ad"><use transform="matrix(0.05,0,0,0.05,0,0)" xlink:href="#by"/><use transform="matrix(0.05,0,0,0.05,10,0)" xlink:href="#bK"/><use transform="matrix(0.05,0,0,0.05,20,0)" xlink:href="#bK"/><use transform="matrix(0.05,0,0,0.05,30,0)" xlink:href="#bL"/><use transform="matrix(0.05,0,0,0.05,40,0)" xlink:href="#bM"/><use transform="matrix(0.05,0,0,0.05,49,0)" xlink:href="#bH"/><use transform="matrix(0.05,0,0,0.05,59,0)" xlink:href="#bN"/><use transform="matrix(0.05,0,0,0.05,69,0)" xlink:href="#bs"/><use transform="matrix(0.05,0,0,0.05,74,0)" xlink:href="#by"/><use transform="matrix(0.05,0,0,0.05,84,0)" xlink:href="#bM"/><use transform="matrix(0.05,0,0,0.05,93,0)" xlink:href="#bs"/><use transform="matrix(0.05,0,0,0.05,98,0)" xlink:href="#bI"/><use transform="matrix(0.05,0,0,0.05,103.95,0)" xlink:href="#bJ"/><use transform="matrix(0.05,0,0,0.05,109.9,0)" xlink:href="#bv"/></g><g id="ae"><use transform="matrix(0.05,0,0,0.05,0,0)" xlink:href="#by"/><use transform="matrix(0.05,0,0,0.05,10,0)" xlink:href="#bK"/><use transform="matrix(0.05,0,0,0.05,20,0)" xlink:href="#bK"/><use transform="matrix(0.05,0,0,0.05,30,0)" xlink:href="#bL"/><use transform="matrix(0.05,0,0,0.05,40,0)" xlink:href="#bN"/><use transform="matrix(0.05,0,0,0.05,50,0)" xlink:href="#bH"/><use transform="matrix(0.05,0,0,0.05,60,0)" xlink:href="#bs"/><use transform="matrix(0.05,0,0,0.05,65,0)" xlink:href="#bt"/><use transform="matrix(0.05,0,0,0.05,75,0)" xlink:href="#bI"/><use transform="matrix(0.05,0,0,0.05,80.95,0)" xlink:href="#bJ"/><use transform="matrix(0.05,0,0,0.05,86.9,0)" xlink:href="#bv"/></g><g id="af"><use transform="matrix(0.05,0,0,0.05,0,0)" xlink:href="#by"/><use transform="matrix(0.05,0,0,0.05,10,0)" xlink:href="#bK"/><use transform="matrix(0.05,0,0,0.05,20,0)" xlink:href="#bK"/><use transform="matrix(0.05,0,0,0.05,30,0)" xlink:href="#bL"/><use transform="matrix(0.05,0,0,0.05,40,0)" xlink:href="#bs"/><use transform="matrix(0.05,0,0,0.05,45,0)" xlink:href="#by"/><use transform="matrix(0.05,0,0,0.05,55,0)" xlink:href="#bz"/><use transform="matrix(0.05,0,0,0.05,65,0)" xlink:href="#bI"/><use transform="matrix(0.05,0,0,0.05,70.95,0)" xlink:href="#bJ"/><use transform="matrix(0.05,0,0,0.05,76.9,0)" xlink:href="#bv"/></g><g id="ag"><use transform="matrix(0.05,0,0,0.05,0,0)" xlink:href="#bM"/><use transform="matrix(0.05,0,0,0.05,9,0)" xlink:href="#bG"/><use transform="matrix(0.05,0,0,0.05,19,0)" xlink:href="#by"/><use transform="matrix(0.05,0,0,0.05,29,0)" xlink:href="#bN"/><use transform="matrix(0.05,0,0,0.05,39,0)" xlink:href="#bz"/><use transform="matrix(0.05,0,0,0.05,49,0)" xlink:href="#bt"/><use transform="matrix(0.05,0,0,0.05,59,0)" xlink:href="#bL"/><use transform="matrix(0.05,0,0,0.05,69,0)" xlink:href="#bN"/><use transform="matrix(0.05,0,0,0.05,79,0)" xlink:href="#bH"/><use transform="matrix(0.05,0,0,0.05,89,0)" xlink:href="#bs"/><use transform="matrix(0.05,0,0,0.05,94,0)" xlink:href="#bt"/><use transform="matrix(0.05,0,0,0.05,104,0)" xlink:href="#bI"/><use transform="matrix(0.05,0,0,0.05,109.95,0)" xlink:href="#bJ"/><use transform="matrix(0.05,0,0,0.05,115.9,0)" xlink:href="#bv"/></g><g id="ah"><use transform="matrix(0.05,0,0,0.05,0,0)" xlink:href="#bK"/><use transform="matrix(0.05,0,0,0.05,10,0)" xlink:href="#bt"/><use transform="matrix(0.05,0,0,0.05,20,0)" xlink:href="#bA"/><use transform="matrix(0.05,0,0,0.05,23.95,0)" xlink:href="#bL"/><use transform="matrix(0.05,0,0,0.05,33.95,0)" xlink:href="#bN"/><use transform="matrix(0.05,0,0,0.05,43.95,0)" xlink:href="#bH"/><use transform="matrix(0.05,0,0,0.05,53.95,0)" xlink:href="#bs"/><use transform="matrix(0.05,0,0,0.05,58.95,0)" xlink:href="#bt"/><use transform="matrix(0.05,0,0,0.05,68.95,0)" xlink:href="#bI"/><use transform="matrix(0.05,0,0,0.05,74.9,0)" xlink:href="#bJ"/><use transform="matrix(0.05,0,0,0.05,80.85000000000001,0)" xlink:href="#bv"/></g><g id="ai"><use transform="matrix(0.05,0,0,0.05,0,0)" xlink:href="#bw"/><use transform="matrix(0.05,0,0,0.05,9,0)" xlink:href="#bt"/><use transform="matrix(0.05,0,0,0.05,19,0)" xlink:href="#by"/><use transform="matrix(0.05,0,0,0.05,29,0)" xlink:href="#bx"/><use transform="matrix(0.05,0,0,0.05,34.95,0)" xlink:href="#bM"/><use transform="matrix(0.05,0,0,0.05,43.95,0)" xlink:href="#bG"/><use transform="matrix(0.05,0,0,0.05,53.95,0)" xlink:href="#bL"/><use transform="matrix(0.05,0,0,0.05,63.95,0)" xlink:href="#bN"/><use transform="matrix(0.05,0,0,0.05,73.95,0)" xlink:href="#bH"/><use transform="matrix(0.05,0,0,0.05,83.95,0)" xlink:href="#bs"/><use transform="matrix(0.05,0,0,0.05,88.95,0)" xlink:href="#bt"/><use transform="matrix(0.05,0,0,0.05,98.95,0)" xlink:href="#bI"/><use transform="matrix(0.05,0,0,0.05,104.9,0)" xlink:href="#bJ"/><use transform="matrix(0.05,0,0,0.05,110.85000000000001,0)" xlink:href="#bv"/></g><path fill="#333" d="M115-194c53 0 69 39 70 98 0 66-23 100-70 100C84 3 66-7 56-30L54 0H23l1-261h32v101c10-23 28-34 59-34zm-8 174c40 0 45-34 45-75 0-40-5-75-45-74-42 0-51 32-51 76 0 43 10 73 51 73" id="bO"/><path fill="#333" d="M179-190L93 31C79 59 56 82 12 73V49c39 6 53-20 64-50L1-190h34L92-34l54-156h33" id="bP"/><g id="aj"><use transform="matrix(0.05,0,0,0.05,0,0)" xlink:href="#bw"/><use transform="matrix(0.05,0,0,0.05,9,0)" xlink:href="#bt"/><use transform="matrix(0.05,0,0,0.05,19,0)" xlink:href="#by"/><use transform="matrix(0.05,0,0,0.05,29,0)" xlink:href="#bx"/><use transform="matrix(0.05,0,0,0.05,34.95,0)" xlink:href="#bM"/><use transform="matrix(0.05,0,0,0.05,43.95,0)" xlink:href="#bG"/><use transform="matrix(0.05,0,0,0.05,53.95,0)" xlink:href="#bL"/><use transform="matrix(0.05,0,0,0.05,63.95,0)" xlink:href="#bN"/><use transform="matrix(0.05,0,0,0.05,73.95,0)" xlink:href="#bH"/><use transform="matrix(0.05,0,0,0.05,83.95,0)" xlink:href="#bs"/><use transform="matrix(0.05,0,0,0.05,88.95,0)" xlink:href="#bt"/><use transform="matrix(0.05,0,0,0.05,98.95,0)" xlink:href="#bL"/><use transform="matrix(0.05,0,0,0.05,108.95,0)" xlink:href="#bO"/><use transform="matrix(0.05,0,0,0.05,118.95,0)" xlink:href="#bP"/><use transform="matrix(0.05,0,0,0.05,127.95,0)" xlink:href="#bL"/><use transform="matrix(0.05,0,0,0.05,137.95,0)" xlink:href="#bs"/><use transform="matrix(0.05,0,0,0.05,142.95,0)" xlink:href="#by"/><use transform="matrix(0.05,0,0,0.05,152.95,0)" xlink:href="#bz"/><use transform="matrix(0.05,0,0,0.05,162.95,0)" xlink:href="#bI"/><use transform="matrix(0.05,0,0,0.05,168.89999999999998,0)" xlink:href="#bJ"/><use transform="matrix(0.05,0,0,0.05,174.84999999999997,0)" xlink:href="#bv"/></g><path fill="#333" d="M206 0h-36l-40-164L89 0H53L-1-190h32L70-26l43-164h34l41 164 42-164h31" id="bQ"/><g id="ak"><use transform="matrix(0.05,0,0,0.05,0,0)" xlink:href="#bw"/><use transform="matrix(0.05,0,0,0.05,9,0)" xlink:href="#bG"/><use transform="matrix(0.05,0,0,0.05,19,0)" xlink:href="#bH"/><use transform="matrix(0.05,0,0,0.05,29,0)" xlink:href="#bQ"/><use transform="matrix(0.05,0,0,0.05,41.95,0)" xlink:href="#bL"/><use transform="matrix(0.05,0,0,0.05,51.95,0)" xlink:href="#bN"/><use transform="matrix(0.05,0,0,0.05,61.95,0)" xlink:href="#bH"/><use transform="matrix(0.05,0,0,0.05,71.95,0)" xlink:href="#bs"/><use transform="matrix(0.05,0,0,0.05,76.95,0)" xlink:href="#bt"/><use transform="matrix(0.05,0,0,0.05,86.95,0)" xlink:href="#bw"/><use transform="matrix(0.05,0,0,0.05,95.95,0)" xlink:href="#bI"/><use transform="matrix(0.05,0,0,0.05,101.9,0)" xlink:href="#bJ"/><use transform="matrix(0.05,0,0,0.05,107.85000000000001,0)" xlink:href="#bv"/></g><g id="al"><use transform="matrix(0.05,0,0,0.05,0,0)" xlink:href="#by"/><use transform="matrix(0.05,0,0,0.05,10,0)" xlink:href="#bK"/><use transform="matrix(0.05,0,0,0.05,20,0)" xlink:href="#bK"/><use transform="matrix(0.05,0,0,0.05,30,0)" xlink:href="#bL"/><use transform="matrix(0.05,0,0,0.05,40,0)" xlink:href="#bO"/><use transform="matrix(0.05,0,0,0.05,50,0)" xlink:href="#bB"/><use transform="matrix(0.05,0,0,0.05,53.95,0)" xlink:href="#bx"/><use transform="matrix(0.05,0,0,0.05,59.900000000000006,0)" xlink:href="#bs"/><use transform="matrix(0.05,0,0,0.05,64.9,0)" xlink:href="#bG"/><use transform="matrix(0.05,0,0,0.05,74.9,0)" xlink:href="#bK"/><use transform="matrix(0.05,0,0,0.05,84.9,0)" xlink:href="#by"/><use transform="matrix(0.05,0,0,0.05,94.9,0)" xlink:href="#bP"/><use transform="matrix(0.05,0,0,0.05,103.9,0)" xlink:href="#bI"/><use transform="matrix(0.05,0,0,0.05,109.85000000000001,0)" xlink:href="#bJ"/><use transform="matrix(0.05,0,0,0.05,115.80000000000001,0)" xlink:href="#bv"/><use transform="matrix(0.05,0,0,0.05,120.80000000000001,0)" xlink:href="#bw"/><use transform="matrix(0.05,0,0,0.05,129.8,0)" xlink:href="#bs"/><use transform="matrix(0.05,0,0,0.05,134.8,0)" xlink:href="#bx"/></g><g id="am"><use transform="matrix(0.05,0,0,0.05,0,0)" xlink:href="#bt"/><use transform="matrix(0.05,0,0,0.05,10,0)" xlink:href="#bK"/><use transform="matrix(0.05,0,0,0.05,20,0)" xlink:href="#bB"/><use transform="matrix(0.05,0,0,0.05,23.95,0)" xlink:href="#bs"/><use transform="matrix(0.05,0,0,0.05,28.950000000000003,0)" xlink:href="#bL"/><use transform="matrix(0.05,0,0,0.05,38.95,0)" xlink:href="#bO"/><use transform="matrix(0.05,0,0,0.05,48.95,0)" xlink:href="#bB"/><use transform="matrix(0.05,0,0,0.05,52.900000000000006,0)" xlink:href="#bx"/><use transform="matrix(0.05,0,0,0.05,58.85,0)" xlink:href="#bs"/><use transform="matrix(0.05,0,0,0.05,63.85,0)" xlink:href="#bG"/><use transform="matrix(0.05,0,0,0.05,73.85000000000001,0)" xlink:href="#bK"/><use transform="matrix(0.05,0,0,0.05,83.85000000000001,0)" xlink:href="#by"/><use transform="matrix(0.05,0,0,0.05,93.85000000000001,0)" xlink:href="#bP"/><use transform="matrix(0.05,0,0,0.05,102.85000000000001,0)" xlink:href="#bI"/><use transform="matrix(0.05,0,0,0.05,108.80000000000001,0)" xlink:href="#bJ"/><use transform="matrix(0.05,0,0,0.05,114.75,0)" xlink:href="#bv"/><use transform="matrix(0.05,0,0,0.05,119.75,0)" xlink:href="#bw"/><use transform="matrix(0.05,0,0,0.05,128.75,0)" xlink:href="#bs"/><use transform="matrix(0.05,0,0,0.05,133.75,0)" xlink:href="#bx"/></g><g id="an"><use transform="matrix(0.05,0,0,0.05,0,0)" xlink:href="#bw"/><use transform="matrix(0.05,0,0,0.05,9,0)" xlink:href="#bG"/><use transform="matrix(0.05,0,0,0.05,19,0)" xlink:href="#bH"/><use transform="matrix(0.05,0,0,0.05,29,0)" xlink:href="#bQ"/><use transform="matrix(0.05,0,0,0.05,41.95,0)" xlink:href="#bJ"/><use transform="matrix(0.05,0,0,0.05,47.900000000000006,0)" xlink:href="#bL"/><use transform="matrix(0.05,0,0,0.05,57.900000000000006,0)" xlink:href="#bO"/><use transform="matrix(0.05,0,0,0.05,67.9,0)" xlink:href="#bB"/><use transform="matrix(0.05,0,0,0.05,71.85000000000001,0)" xlink:href="#bx"/><use transform="matrix(0.05,0,0,0.05,77.80000000000001,0)" xlink:href="#bs"/><use transform="matrix(0.05,0,0,0.05,82.80000000000001,0)" xlink:href="#bG"/><use transform="matrix(0.05,0,0,0.05,92.80000000000001,0)" xlink:href="#bK"/><use transform="matrix(0.05,0,0,0.05,102.80000000000001,0)" xlink:href="#by"/><use transform="matrix(0.05,0,0,0.05,112.80000000000001,0)" xlink:href="#bP"/><use transform="matrix(0.05,0,0,0.05,121.80000000000001,0)" xlink:href="#bL"/><use transform="matrix(0.05,0,0,0.05,131.8,0)" xlink:href="#bQ"/><use transform="matrix(0.05,0,0,0.05,144.75,0)" xlink:href="#bB"/><use transform="matrix(0.05,0,0,0.05,148.7,0)" xlink:href="#bs"/><use transform="matrix(0.05,0,0,0.05,153.7,0)" xlink:href="#bG"/><use transform="matrix(0.05,0,0,0.05,163.7,0)" xlink:href="#bB"/><use transform="matrix(0.05,0,0,0.05,167.64999999999998,0)" xlink:href="#bN"/><use transform="matrix(0.05,0,0,0.05,177.64999999999998,0)" xlink:href="#bL"/><use transform="matrix(0.05,0,0,0.05,187.64999999999998,0)" xlink:href="#bK"/><use transform="matrix(0.05,0,0,0.05,197.64999999999998,0)" xlink:href="#by"/><use transform="matrix(0.05,0,0,0.05,207.64999999999998,0)" xlink:href="#bP"/><use transform="matrix(0.05,0,0,0.05,216.64999999999998,0)" xlink:href="#bw"/><use transform="matrix(0.05,0,0,0.05,225.64999999999998,0)" xlink:href="#bI"/><use transform="matrix(0.05,0,0,0.05,231.59999999999997,0)" xlink:href="#bJ"/><use transform="matrix(0.05,0,0,0.05,237.54999999999995,0)" xlink:href="#bv"/></g><g id="ao"><use transform="matrix(0.05,0,0,0.05,0,0)" xlink:href="#bK"/><use transform="matrix(0.05,0,0,0.05,10,0)" xlink:href="#by"/><use transform="matrix(0.05,0,0,0.05,20,0)" xlink:href="#bP"/><use transform="matrix(0.05,0,0,0.05,29,0)" xlink:href="#bw"/><use transform="matrix(0.05,0,0,0.05,38,0)" xlink:href="#bL"/><use transform="matrix(0.05,0,0,0.05,48,0)" xlink:href="#bs"/><use transform="matrix(0.05,0,0,0.05,53,0)" xlink:href="#bH"/><use transform="matrix(0.05,0,0,0.05,63,0)" xlink:href="#bL"/><use transform="matrix(0.05,0,0,0.05,73,0)" xlink:href="#bO"/><use transform="matrix(0.05,0,0,0.05,83,0)" xlink:href="#bB"/><use transform="matrix(0.05,0,0,0.05,86.95,0)" xlink:href="#bx"/><use transform="matrix(0.05,0,0,0.05,92.9,0)" xlink:href="#bs"/><use transform="matrix(0.05,0,0,0.05,97.9,0)" xlink:href="#bG"/><use transform="matrix(0.05,0,0,0.05,107.9,0)" xlink:href="#bK"/><use transform="matrix(0.05,0,0,0.05,117.9,0)" xlink:href="#by"/><use transform="matrix(0.05,0,0,0.05,127.9,0)" xlink:href="#bP"/><use transform="matrix(0.05,0,0,0.05,136.9,0)" xlink:href="#bI"/><use transform="matrix(0.05,0,0,0.05,142.85,0)" xlink:href="#bJ"/><use transform="matrix(0.05,0,0,0.05,148.79999999999998,0)" xlink:href="#bv"/></g><path fill="#333" d="M101-234c-31-9-42 10-38 44h38v23H63V0H32v-167H5v-23h27c-7-52 17-82 69-68v24" id="bR"/><path fill="#333" d="M115-194c55 1 70 41 70 98S169 2 115 4C84 4 66-9 55-30l1 105H24l-1-265h31l2 30c10-21 28-34 59-34zm-8 174c40 0 45-34 45-75s-6-73-45-74c-42 0-51 32-51 76 0 43 10 73 51 73" id="bS"/><g id="ap"><use transform="matrix(0.05,0,0,0.05,0,0)" xlink:href="#bt"/><use transform="matrix(0.05,0,0,0.05,10,0)" xlink:href="#bR"/><use transform="matrix(0.05,0,0,0.05,15,0)" xlink:href="#bB"/><use transform="matrix(0.05,0,0,0.05,18.95,0)" xlink:href="#bs"/><use transform="matrix(0.05,0,0,0.05,23.95,0)" xlink:href="#bL"/><use transform="matrix(0.05,0,0,0.05,33.95,0)" xlink:href="#bS"/><use transform="matrix(0.05,0,0,0.05,43.95,0)" xlink:href="#bG"/><use transform="matrix(0.05,0,0,0.05,53.95,0)" xlink:href="#bH"/><use transform="matrix(0.05,0,0,0.05,63.95,0)" xlink:href="#bN"/><use transform="matrix(0.05,0,0,0.05,73.95,0)" xlink:href="#bt"/><use transform="matrix(0.05,0,0,0.05,83.95,0)" xlink:href="#bI"/><use transform="matrix(0.05,0,0,0.05,89.9,0)" xlink:href="#bJ"/><use transform="matrix(0.05,0,0,0.05,95.85000000000001,0)" xlink:href="#bv"/></g><g id="aq"><use transform="matrix(0.05,0,0,0.05,0,0)" xlink:href="#bK"/><use transform="matrix(0.05,0,0,0.05,10,0)" xlink:href="#bt"/><use transform="matrix(0.05,0,0,0.05,20,0)" xlink:href="#bA"/><use transform="matrix(0.05,0,0,0.05,23.95,0)" xlink:href="#bL"/><use transform="matrix(0.05,0,0,0.05,33.95,0)" xlink:href="#bS"/><use transform="matrix(0.05,0,0,0.05,43.95,0)" xlink:href="#bG"/><use transform="matrix(0.05,0,0,0.05,53.95,0)" xlink:href="#bH"/><use transform="matrix(0.05,0,0,0.05,63.95,0)" xlink:href="#bN"/><use transform="matrix(0.05,0,0,0.05,73.95,0)" xlink:href="#bt"/><use transform="matrix(0.05,0,0,0.05,83.95,0)" xlink:href="#bI"/><use transform="matrix(0.05,0,0,0.05,89.9,0)" xlink:href="#bJ"/><use transform="matrix(0.05,0,0,0.05,95.85000000000001,0)" xlink:href="#bv"/></g><g id="ar"><use transform="matrix(0.05,0,0,0.05,0,0)" xlink:href="#bM"/><use transform="matrix(0.05,0,0,0.05,9,0)" xlink:href="#bG"/><use transform="matrix(0.05,0,0,0.05,19,0)" xlink:href="#by"/><use transform="matrix(0.05,0,0,0.05,29,0)" xlink:href="#bN"/><use transform="matrix(0.05,0,0,0.05,39,0)" xlink:href="#bz"/><use transform="matrix(0.05,0,0,0.05,49,0)" xlink:href="#bt"/><use transform="matrix(0.05,0,0,0.05,59,0)" xlink:href="#bL"/><use transform="matrix(0.05,0,0,0.05,69,0)" xlink:href="#bS"/><use transform="matrix(0.05,0,0,0.05,79,0)" xlink:href="#bG"/><use transform="matrix(0.05,0,0,0.05,89,0)" xlink:href="#bH"/><use transform="matrix(0.05,0,0,0.05,99,0)" xlink:href="#bN"/><use transform="matrix(0.05,0,0,0.05,109,0)" xlink:href="#bt"/><use transform="matrix(0.05,0,0,0.05,119,0)" xlink:href="#bI"/><use transform="matrix(0.05,0,0,0.05,124.95,0)" xlink:href="#bJ"/><use transform="matrix(0.05,0,0,0.05,130.9,0)" xlink:href="#bv"/></g><g id="as"><use transform="matrix(0.05,0,0,0.05,0,0)" xlink:href="#bw"/><use transform="matrix(0.05,0,0,0.05,9,0)" xlink:href="#bG"/><use transform="matrix(0.05,0,0,0.05,19,0)" xlink:href="#bH"/><use transform="matrix(0.05,0,0,0.05,29,0)" xlink:href="#bQ"/><use transform="matrix(0.05,0,0,0.05,41.95,0)" xlink:href="#bL"/><use transform="matrix(0.05,0,0,0.05,51.95,0)" xlink:href="#by"/><use transform="matrix(0.05,0,0,0.05,61.95,0)" xlink:href="#bA"/><use transform="matrix(0.05,0,0,0.05,65.9,0)" xlink:href="#bA"/><use transform="matrix(0.05,0,0,0.05,69.85000000000001,0)" xlink:href="#bI"/><use transform="matrix(0.05,0,0,0.05,75.80000000000001,0)" xlink:href="#bJ"/><use transform="matrix(0.05,0,0,0.05,81.75000000000001,0)" xlink:href="#bv"/></g><path fill="#333" d="M210-169c-67 3-38 105-44 169h-31v-121c0-29-5-50-35-48C34-165 62-65 56 0H25l-1-190h30c1 10-1 24 2 32 10-44 99-50 107 0 11-21 27-35 58-36 85-2 47 119 55 194h-31v-121c0-29-5-49-35-48" id="bT"/><g id="at"><use transform="matrix(0.05,0,0,0.05,0,0)" xlink:href="#bw"/><use transform="matrix(0.05,0,0,0.05,9,0)" xlink:href="#bt"/><use transform="matrix(0.05,0,0,0.05,19,0)" xlink:href="#by"/><use transform="matrix(0.05,0,0,0.05,29,0)" xlink:href="#bx"/><use transform="matrix(0.05,0,0,0.05,34.95,0)" xlink:href="#bM"/><use transform="matrix(0.05,0,0,0.05,43.95,0)" xlink:href="#bG"/><use transform="matrix(0.05,0,0,0.05,53.95,0)" xlink:href="#bL"/><use transform="matrix(0.05,0,0,0.05,63.95,0)" xlink:href="#bO"/><use transform="matrix(0.05,0,0,0.05,73.95,0)" xlink:href="#bP"/><use transform="matrix(0.05,0,0,0.05,82.95,0)" xlink:href="#bL"/><use transform="matrix(0.05,0,0,0.05,92.95,0)" xlink:href="#bN"/><use transform="matrix(0.05,0,0,0.05,102.95,0)" xlink:href="#by"/><use transform="matrix(0.05,0,0,0.05,112.95,0)" xlink:href="#bT"/><use transform="matrix(0.05,0,0,0.05,127.9,0)" xlink:href="#bt"/><use transform="matrix(0.05,0,0,0.05,137.9,0)" xlink:href="#bI"/><use transform="matrix(0.05,0,0,0.05,143.85,0)" xlink:href="#bJ"/><use transform="matrix(0.05,0,0,0.05,149.79999999999998,0)" xlink:href="#bv"/></g><g id="au"><use transform="matrix(0.05,0,0,0.05,0,0)" xlink:href="#bw"/><use transform="matrix(0.05,0,0,0.05,9,0)" xlink:href="#bt"/><use transform="matrix(0.05,0,0,0.05,19,0)" xlink:href="#by"/><use transform="matrix(0.05,0,0,0.05,29,0)" xlink:href="#bx"/><use transform="matrix(0.05,0,0,0.05,34.95,0)" xlink:href="#bM"/><use transform="matrix(0.05,0,0,0.05,43.95,0)" xlink:href="#bG"/><use transform="matrix(0.05,0,0,0.05,53.95,0)" xlink:href="#bL"/><use transform="matrix(0.05,0,0,0.05,63.95,0)" xlink:href="#bS"/><use transform="matrix(0.05,0,0,0.05,73.95,0)" xlink:href="#bP"/><use transform="matrix(0.05,0,0,0.05,82.95,0)" xlink:href="#bL"/><use transform="matrix(0.05,0,0,0.05,92.95,0)" xlink:href="#bS"/><use transform="matrix(0.05,0,0,0.05,102.95,0)" xlink:href="#bG"/><use transform="matrix(0.05,0,0,0.05,112.95,0)" xlink:href="#bH"/><use transform="matrix(0.05,0,0,0.05,122.95,0)" xlink:href="#bN"/><use transform="matrix(0.05,0,0,0.05,132.95,0)" xlink:href="#bt"/><use transform="matrix(0.05,0,0,0.05,142.95,0)" xlink:href="#bI"/><use transform="matrix(0.05,0,0,0.05,148.89999999999998,0)" xlink:href="#bJ"/><use transform="matrix(0.05,0,0,0.05,154.84999999999997,0)" xlink:href="#bv"/></g><g id="av"><use transform="matrix(0.05,0,0,0.05,0,0)" xlink:href="#bw"/><use transform="matrix(0.05,0,0,0.05,9,0)" xlink:href="#bH"/><use transform="matrix(0.05,0,0,0.05,19,0)" xlink:href="#bx"/><use transform="matrix(0.05,0,0,0.05,24.95,0)" xlink:href="#bs"/><use transform="matrix(0.05,0,0,0.05,29.950000000000003,0)" xlink:href="#bL"/><use transform="matrix(0.05,0,0,0.05,39.95,0)" xlink:href="#bK"/><use transform="matrix(0.05,0,0,0.05,49.95,0)" xlink:href="#bB"/><use transform="matrix(0.05,0,0,0.05,53.900000000000006,0)" xlink:href="#bx"/><use transform="matrix(0.05,0,0,0.05,59.85,0)" xlink:href="#bt"/><use transform="matrix(0.05,0,0,0.05,69.85000000000001,0)" xlink:href="#bM"/><use transform="matrix(0.05,0,0,0.05,78.85000000000001,0)" xlink:href="#bs"/><use transform="matrix(0.05,0,0,0.05,83.85000000000001,0)" xlink:href="#bH"/><use transform="matrix(0.05,0,0,0.05,93.85000000000001,0)" xlink:href="#bx"/><use transform="matrix(0.05,0,0,0.05,99.80000000000001,0)" xlink:href="#bP"/><use transform="matrix(0.05,0,0,0.05,108.80000000000001,0)" xlink:href="#bI"/><use transform="matrix(0.05,0,0,0.05,114.75,0)" xlink:href="#bJ"/><use transform="matrix(0.05,0,0,0.05,120.7,0)" xlink:href="#bv"/></g><g id="aw"><use transform="matrix(0.05,0,0,0.05,0,0)" xlink:href="#bG"/><use transform="matrix(0.05,0,0,0.05,10,0)" xlink:href="#bt"/><use transform="matrix(0.05,0,0,0.05,20,0)" xlink:href="#bA"/><use transform="matrix(0.05,0,0,0.05,23.95,0)" xlink:href="#bS"/><use transform="matrix(0.05,0,0,0.05,33.95,0)" xlink:href="#bt"/><use transform="matrix(0.05,0,0,0.05,43.95,0)" xlink:href="#bx"/><use transform="matrix(0.05,0,0,0.05,49.900000000000006,0)" xlink:href="#bI"/><use transform="matrix(0.05,0,0,0.05,55.85,0)" xlink:href="#bJ"/><use transform="matrix(0.05,0,0,0.05,61.80000000000001,0)" xlink:href="#bv"/></g><g id="ax"><use transform="matrix(0.05,0,0,0.05,0,0)" xlink:href="#bR"/><use transform="matrix(0.05,0,0,0.05,5,0)" xlink:href="#bB"/><use transform="matrix(0.05,0,0,0.05,8.95,0)" xlink:href="#bN"/><use transform="matrix(0.05,0,0,0.05,18.95,0)" xlink:href="#bK"/><use transform="matrix(0.05,0,0,0.05,28.950000000000003,0)" xlink:href="#bL"/><use transform="matrix(0.05,0,0,0.05,38.95,0)" xlink:href="#bM"/><use transform="matrix(0.05,0,0,0.05,47.95,0)" xlink:href="#bA"/><use transform="matrix(0.05,0,0,0.05,51.900000000000006,0)" xlink:href="#bH"/><use transform="matrix(0.05,0,0,0.05,61.900000000000006,0)" xlink:href="#bw"/><use transform="matrix(0.05,0,0,0.05,70.9,0)" xlink:href="#bt"/><use transform="matrix(0.05,0,0,0.05,80.9,0)" xlink:href="#bs"/><use transform="matrix(0.05,0,0,0.05,85.9,0)" xlink:href="#bL"/><use transform="matrix(0.05,0,0,0.05,95.9,0)" xlink:href="#bM"/><use transform="matrix(0.05,0,0,0.05,104.9,0)" xlink:href="#bH"/><use transform="matrix(0.05,0,0,0.05,114.9,0)" xlink:href="#bT"/><use transform="matrix(0.05,0,0,0.05,129.85,0)" xlink:href="#bT"/><use transform="matrix(0.05,0,0,0.05,144.79999999999998,0)" xlink:href="#by"/><use transform="matrix(0.05,0,0,0.05,154.79999999999998,0)" xlink:href="#bN"/><use transform="matrix(0.05,0,0,0.05,164.79999999999998,0)" xlink:href="#bK"/><use transform="matrix(0.05,0,0,0.05,174.79999999999998,0)" xlink:href="#bI"/><use transform="matrix(0.05,0,0,0.05,180.74999999999997,0)" xlink:href="#bs"/><use transform="matrix(0.05,0,0,0.05,185.74999999999997,0)" xlink:href="#bt"/><use transform="matrix(0.05,0,0,0.05,195.74999999999997,0)" xlink:href="#bu"/><use transform="matrix(0.05,0,0,0.05,204.74999999999997,0)" xlink:href="#bs"/><use transform="matrix(0.05,0,0,0.05,209.74999999999997,0)" xlink:href="#bv"/></g><path fill="#333" d="M68-38c1 34 0 65-14 84H32c9-13 17-26 17-46H33v-38h35" id="bU"/><g id="ay"><use transform="matrix(0.05,0,0,0.05,0,0)" xlink:href="#bw"/><use transform="matrix(0.05,0,0,0.05,9,0)" xlink:href="#bs"/><use transform="matrix(0.05,0,0,0.05,14,0)" xlink:href="#bx"/><use transform="matrix(0.05,0,0,0.05,18.95,0)" xlink:href="#bU"/></g><g id="az"><use transform="matrix(0.05,0,0,0.05,0,0)" xlink:href="#bM"/><use transform="matrix(0.05,0,0,0.05,9,0)" xlink:href="#bH"/><use transform="matrix(0.05,0,0,0.05,19,0)" xlink:href="#bT"/><use transform="matrix(0.05,0,0,0.05,33.95,0)" xlink:href="#bT"/><use transform="matrix(0.05,0,0,0.05,48.900000000000006,0)" xlink:href="#by"/><use transform="matrix(0.05,0,0,0.05,58.900000000000006,0)" xlink:href="#bN"/><use transform="matrix(0.05,0,0,0.05,68.9,0)" xlink:href="#bK"/><use transform="matrix(0.05,0,0,0.05,78.9,0)" xlink:href="#bw"/><use transform="matrix(0.05,0,0,0.05,87.9,0)" xlink:href="#bv"/></g><g id="aA"><use transform="matrix(0.05,0,0,0.05,0,0)" xlink:href="#bK"/><use transform="matrix(0.05,0,0,0.05,10,0)" xlink:href="#bB"/><use transform="matrix(0.05,0,0,0.05,13.949999999999998,0)" xlink:href="#bM"/><use transform="matrix(0.05,0,0,0.05,22.95,0)" xlink:href="#bs"/><use transform="matrix(0.05,0,0,0.05,27.950000000000003,0)" xlink:href="#bJ"/><use transform="matrix(0.05,0,0,0.05,33.9,0)" xlink:href="#bv"/></g><g id="aB"><use transform="matrix(0.05,0,0,0.05,0,0)" xlink:href="#bT"/><use transform="matrix(0.05,0,0,0.05,14.950000000000001,0)" xlink:href="#by"/><use transform="matrix(0.05,0,0,0.05,24.950000000000003,0)" xlink:href="#bB"/><use transform="matrix(0.05,0,0,0.05,28.900000000000002,0)" xlink:href="#bN"/><use transform="matrix(0.05,0,0,0.05,38.900000000000006,0)" xlink:href="#bI"/><use transform="matrix(0.05,0,0,0.05,44.85000000000001,0)" xlink:href="#bJ"/><use transform="matrix(0.05,0,0,0.05,50.80000000000001,0)" xlink:href="#bv"/></g><path fill="#333" d="M108 0H70L1-190h34L89-25l56-165h34" id="bV"/><g id="aC"><use transform="matrix(0.05,0,0,0.05,0,0)" xlink:href="#bV"/><use transform="matrix(0.05,0,0,0.05,9,0)" xlink:href="#bH"/><use transform="matrix(0.05,0,0,0.05,19,0)" xlink:href="#bB"/><use transform="matrix(0.05,0,0,0.05,22.95,0)" xlink:href="#bK"/></g></defs></g></svg>