<svg xmlns="http://www.w3.org/2000/svg" xmlns:xlink="http://www.w3.org/1999/xlink" xmlns:lucid="lucid" width="283" height="675.73"><g transform="translate(-778.5 -248.76666666666677)" lucid:page-tab-id="4wkqGhDbhor_"><path d="M800 276.27a6 6 0 0 1 6-6h228a6 6 0 0 1 6 6v166a6 6 0 0 1-6 6H806a6 6 0 0 1-6-6z" stroke="#5e5e5e" stroke-width="3" fill="#fff"/><path d="M800 307.87h240m-240 37.6h240" stroke="#5e5e5e" stroke-width="3" fill="none"/><use xlink:href="#a" transform="matrix(1,0,0,1,808,278.26666666666677) translate(65.125 14.6)"/><use xlink:href="#b" transform="matrix(1,0,0,1,812,315.8666666666668) translate(49.74999999999999 14.6)"/><use xlink:href="#c" transform="matrix(1,0,0,1,812,353.4666666666668) translate(50.074999999999996 14.69999999999999)"/><use xlink:href="#d" transform="matrix(1,0,0,1,812,353.4666666666668) translate(63.62499999999999 36.29999999999999)"/><use xlink:href="#e" transform="matrix(1,0,0,1,812,353.4666666666668) translate(16.15000000000002 57.89999999999999)"/><use xlink:href="#f" transform="matrix(1,0,0,1,812,353.4666666666668) translate(59.62499999999999 79.5)"/><path d="M800 520.13a6 6 0 0 1 6-6h228a6 6 0 0 1 6 6v28a6 6 0 0 1-6 6H806a6 6 0 0 1-6-6z" stroke="#5e5e5e" stroke-width="3" fill="#fff"/><use xlink:href="#g" transform="matrix(1,0,0,1,808,522.1333333333334) translate(82.6 15.6)"/><path d="M800 626a6 6 0 0 1 6-6h228a6 6 0 0 1 6 6v28a6 6 0 0 1-6 6H806a6 6 0 0 1-6-6z" stroke="#5e5e5e" stroke-width="3" fill="#fff"/><use xlink:href="#h" transform="matrix(1,0,0,1,808,628) translate(92.55 15.6)"/><path d="M800 726a6 6 0 0 1 6-6h228a6 6 0 0 1 6 6v171a6 6 0 0 1-6 6H806a6 6 0 0 1-6-6z" stroke="#5e5e5e" stroke-width="3" fill="#fff"/><path d="M800 757.6h240" stroke="#5e5e5e" stroke-width="3" fill="none"/><use xlink:href="#i" transform="matrix(1,0,0,1,808,728) translate(53.275 14.6)"/><use xlink:href="#j" transform="matrix(1,0,0,1,812,765.6) translate(85.025 14.600000000000003)"/><use xlink:href="#k" transform="matrix(1,0,0,1,812,765.6) translate(62.55 36.2)"/><use xlink:href="#l" transform="matrix(1,0,0,1,812,765.6) translate(85.2 57.800000000000004)"/><use xlink:href="#m" transform="matrix(1,0,0,1,812,765.6) translate(83.025 79.40000000000002)"/><use xlink:href="#n" transform="matrix(1,0,0,1,812,765.6) translate(78.05 101.00000000000001)"/><use xlink:href="#o" transform="matrix(1,0,0,1,812,765.6) translate(87.5 122.60000000000001)"/><path d="M920 511.63v-52.87" stroke="#5e5e5e" stroke-width="2" fill="none"/><path d="M921 512.63h-2v-1.02h2z" stroke="#5e5e5e" stroke-width=".05" fill="#5e5e5e"/><path d="M920 451.73l7.64 12.9h-15.28z" stroke="#5e5e5e" stroke-width="2" fill="#5e5e5e"/><path d="M920 617.5v-52.88" stroke="#5e5e5e" stroke-width="2" fill="none"/><path d="M921 618.5h-2v-1.03h2z" stroke="#5e5e5e" stroke-width=".05" fill="#5e5e5e"/><path d="M920 557.6l7.64 12.9h-15.28z" stroke="#5e5e5e" stroke-width="2" fill="#5e5e5e"/><path d="M920 717.5v-47" stroke="#5e5e5e" stroke-width="2" fill="none"/><path d="M921 718.5h-2v-1.03h2z" stroke="#5e5e5e" stroke-width=".05" fill="#5e5e5e"/><path d="M920 663.46l7.64 12.92h-15.28z" stroke="#5e5e5e" stroke-width="2" fill="#5e5e5e"/><defs><path fill="#333" d="M137-138c1-29-70-34-71-4 15 46 118 7 119 86 1 83-164 76-172 9l43-7c4 19 20 25 44 25 33 8 57-30 24-41C81-84 22-81 20-136c-2-80 154-74 161-7" id="p"/><path fill="#333" d="M110-194c64 0 96 36 96 99 0 64-35 99-97 99-61 0-95-36-95-99 0-62 34-99 96-99zm-1 164c35 0 45-28 45-65 0-40-10-65-43-65-34 0-45 26-45 65 0 36 10 65 43 65" id="q"/><path fill="#333" d="M135-150c-39-12-60 13-60 57V0H25l-1-190h47c2 13-1 29 3 40 6-28 27-53 61-41v41" id="r"/><path fill="#333" d="M115-3C79 11 28 4 28-45v-112H4v-33h27l15-45h31v45h36v33H77v99c-1 23 16 31 38 25v30" id="s"/><path fill="#333" d="M-4 44V30h207v14H-4" id="t"/><path fill="#333" d="M121-226c-27-7-43 5-38 36h38v33H83V0H34v-157H6v-33h28c-9-59 32-81 87-68v32" id="u"/><path fill="#333" d="M25 0v-261h50V0H25" id="v"/><path fill="#333" d="M88-194c31-1 46 15 58 34l-1-101h50l1 261h-48c-2-10 0-23-3-31C134-8 116 4 84 4 32 4 16-41 15-95c0-56 19-97 73-99zm17 164c33 0 40-30 41-66 1-37-9-64-41-64s-38 30-39 65c0 43 13 65 39 65" id="w"/><path fill="#333" d="M185-48c-13 30-37 53-82 52C43 2 14-33 14-96s30-98 90-98c62 0 83 45 84 108H66c0 31 8 55 39 56 18 0 30-7 34-22zm-45-69c5-46-57-63-70-21-2 6-4 13-4 21h74" id="x"/><g id="a"><use transform="matrix(0.05,0,0,0.05,0,0)" xlink:href="#p"/><use transform="matrix(0.05,0,0,0.05,10,0)" xlink:href="#q"/><use transform="matrix(0.05,0,0,0.05,20.950000000000003,0)" xlink:href="#r"/><use transform="matrix(0.05,0,0,0.05,27.950000000000003,0)" xlink:href="#s"/><use transform="matrix(0.05,0,0,0.05,33.900000000000006,0)" xlink:href="#t"/><use transform="matrix(0.05,0,0,0.05,43.900000000000006,0)" xlink:href="#u"/><use transform="matrix(0.05,0,0,0.05,49.85000000000001,0)" xlink:href="#q"/><use transform="matrix(0.05,0,0,0.05,60.80000000000001,0)" xlink:href="#v"/><use transform="matrix(0.05,0,0,0.05,65.80000000000001,0)" xlink:href="#w"/><use transform="matrix(0.05,0,0,0.05,76.75000000000001,0)" xlink:href="#x"/><use transform="matrix(0.05,0,0,0.05,86.75000000000001,0)" xlink:href="#r"/></g><path fill="#333" d="M212-179c-10-28-35-45-73-45-59 0-87 40-87 99 0 60 29 101 89 101 43 0 62-24 78-52l27 14C228-24 195 4 139 4 59 4 22-46 18-125c-6-104 99-153 187-111 19 9 31 26 39 46" id="y"/><path fill="#333" d="M205 0l-28-72H64L36 0H1l101-248h38L239 0h-34zm-38-99l-47-123c-12 45-31 82-46 123h93" id="z"/><path fill="#333" d="M127-220V0H93v-220H8v-28h204v28h-85" id="A"/><path fill="#333" d="M30 0v-248h187v28H63v79h144v27H63v87h162V0H30" id="B"/><path fill="#333" d="M143 4C61 4 22-44 18-125c-5-107 100-154 193-111 17 8 29 25 37 43l-32 9c-13-25-37-40-76-40-61 0-88 39-88 99 0 61 29 100 91 101 35 0 62-11 79-27v-45h-74v-28h105v86C228-13 192 4 143 4" id="C"/><path fill="#333" d="M140-251c81 0 123 46 123 126C263-46 219 4 140 4 59 4 17-45 17-125s42-126 123-126zm0 227c63 0 89-41 89-101s-29-99-89-99c-61 0-89 39-89 99S79-25 140-24" id="D"/><path fill="#333" d="M233-177c-1 41-23 64-60 70L243 0h-38l-65-103H63V0H30v-248c88 3 205-21 203 71zM63-129c60-2 137 13 137-47 0-61-80-42-137-45v92" id="E"/><path fill="#333" d="M33 0v-248h34V0H33" id="F"/><path fill="#333" d="M185-189c-5-48-123-54-124 2 14 75 158 14 163 119 3 78-121 87-175 55-17-10-28-26-33-46l33-7c5 56 141 63 141-1 0-78-155-14-162-118-5-82 145-84 179-34 5 7 8 16 11 25" id="G"/><g id="b"><use transform="matrix(0.05,0,0,0.05,0,0)" xlink:href="#y"/><use transform="matrix(0.05,0,0,0.05,12.950000000000001,0)" xlink:href="#z"/><use transform="matrix(0.05,0,0,0.05,23.6,0)" xlink:href="#A"/><use transform="matrix(0.05,0,0,0.05,34.550000000000004,0)" xlink:href="#B"/><use transform="matrix(0.05,0,0,0.05,46.550000000000004,0)" xlink:href="#C"/><use transform="matrix(0.05,0,0,0.05,60.550000000000004,0)" xlink:href="#D"/><use transform="matrix(0.05,0,0,0.05,74.55000000000001,0)" xlink:href="#E"/><use transform="matrix(0.05,0,0,0.05,87.50000000000001,0)" xlink:href="#F"/><use transform="matrix(0.05,0,0,0.05,92.50000000000001,0)" xlink:href="#B"/><use transform="matrix(0.05,0,0,0.05,104.5,0)" xlink:href="#G"/></g><path fill="#333" d="M177-190C167-65 218 103 67 71c-23-6-38-20-44-43l32-5c15 47 100 32 89-28v-30C133-14 115 1 83 1 29 1 15-40 15-95c0-56 16-97 71-98 29-1 48 16 59 35 1-10 0-23 2-32h30zM94-22c36 0 50-32 50-73 0-42-14-75-50-75-39 0-46 34-46 75s6 73 46 73" id="H"/><path fill="#333" d="M100-194c63 0 86 42 84 106H49c0 40 14 67 53 68 26 1 43-12 49-29l28 8c-11 28-37 45-77 45C44 4 14-33 15-96c1-61 26-98 85-98zm52 81c6-60-76-77-97-28-3 7-6 17-6 28h103" id="I"/><path fill="#333" d="M59-47c-2 24 18 29 38 22v24C64 9 27 4 27-40v-127H5v-23h24l9-43h21v43h35v23H59v120" id="J"/><path fill="#333" d="M-5 72V49h209v23H-5" id="K"/><path fill="#333" d="M96-169c-40 0-48 33-48 73s9 75 48 75c24 0 41-14 43-38l32 2c-6 37-31 61-74 61-59 0-76-41-82-99-10-93 101-131 147-64 4 7 5 14 7 22l-32 3c-4-21-16-35-41-35" id="L"/><path fill="#333" d="M141-36C126-15 110 5 73 4 37 3 15-17 15-53c-1-64 63-63 125-63 3-35-9-54-41-54-24 1-41 7-42 31l-33-3c5-37 33-52 76-52 45 0 72 20 72 64v82c-1 20 7 32 28 27v20c-31 9-61-2-59-35zM48-53c0 20 12 33 32 33 41-3 63-29 60-74-43 2-92-5-92 41" id="M"/><path fill="#333" d="M100-194c62-1 85 37 85 99 1 63-27 99-86 99S16-35 15-95c0-66 28-99 85-99zM99-20c44 1 53-31 53-75 0-43-8-75-51-75s-53 32-53 75 10 74 51 75" id="N"/><path fill="#333" d="M114-163C36-179 61-72 57 0H25l-1-190h30c1 12-1 29 2 39 6-27 23-49 58-41v29" id="O"/><path fill="#333" d="M179-190L93 31C79 59 56 82 12 73V49c39 6 53-20 64-50L1-190h34L92-34l54-156h33" id="P"/><path fill="#333" d="M87 75C49 33 22-17 22-94c0-76 28-126 65-167h31c-38 41-64 92-64 168S80 34 118 75H87" id="Q"/><path fill="#333" d="M33-261c38 41 65 92 65 168S71 34 33 75H2C39 34 66-17 66-93S39-220 2-261h31" id="R"/><g id="c"><use transform="matrix(0.05,0,0,0.05,0,0)" xlink:href="#H"/><use transform="matrix(0.05,0,0,0.05,10,0)" xlink:href="#I"/><use transform="matrix(0.05,0,0,0.05,20,0)" xlink:href="#J"/><use transform="matrix(0.05,0,0,0.05,25,0)" xlink:href="#K"/><use transform="matrix(0.05,0,0,0.05,35,0)" xlink:href="#L"/><use transform="matrix(0.05,0,0,0.05,44,0)" xlink:href="#M"/><use transform="matrix(0.05,0,0,0.05,54,0)" xlink:href="#J"/><use transform="matrix(0.05,0,0,0.05,59,0)" xlink:href="#I"/><use transform="matrix(0.05,0,0,0.05,69,0)" xlink:href="#H"/><use transform="matrix(0.05,0,0,0.05,79,0)" xlink:href="#N"/><use transform="matrix(0.05,0,0,0.05,89,0)" xlink:href="#O"/><use transform="matrix(0.05,0,0,0.05,94.95,0)" xlink:href="#P"/><use transform="matrix(0.05,0,0,0.05,103.95,0)" xlink:href="#Q"/><use transform="matrix(0.05,0,0,0.05,109.9,0)" xlink:href="#R"/></g><path fill="#333" d="M210-169c-67 3-38 105-44 169h-31v-121c0-29-5-50-35-48C34-165 62-65 56 0H25l-1-190h30c1 10-1 24 2 32 10-44 99-50 107 0 11-21 27-35 58-36 85-2 47 119 55 194h-31v-121c0-29-5-49-35-48" id="S"/><path fill="#333" d="M108 0H70L1-190h34L89-25l56-165h34" id="T"/><path fill="#333" d="M101-234c-31-9-42 10-38 44h38v23H63V0H32v-167H5v-23h27c-7-52 17-82 69-68v24" id="U"/><path fill="#333" d="M24-231v-30h32v30H24zM24 0v-190h32V0H24" id="V"/><path fill="#333" d="M24 0v-261h32V0H24" id="W"/><g id="d"><use transform="matrix(0.05,0,0,0.05,0,0)" xlink:href="#S"/><use transform="matrix(0.05,0,0,0.05,14.950000000000001,0)" xlink:href="#N"/><use transform="matrix(0.05,0,0,0.05,24.950000000000003,0)" xlink:href="#T"/><use transform="matrix(0.05,0,0,0.05,33.95,0)" xlink:href="#I"/><use transform="matrix(0.05,0,0,0.05,43.95,0)" xlink:href="#K"/><use transform="matrix(0.05,0,0,0.05,53.95,0)" xlink:href="#U"/><use transform="matrix(0.05,0,0,0.05,58.95,0)" xlink:href="#V"/><use transform="matrix(0.05,0,0,0.05,62.900000000000006,0)" xlink:href="#W"/><use transform="matrix(0.05,0,0,0.05,66.85000000000001,0)" xlink:href="#I"/><use transform="matrix(0.05,0,0,0.05,76.85000000000001,0)" xlink:href="#Q"/><use transform="matrix(0.05,0,0,0.05,82.80000000000001,0)" xlink:href="#R"/></g><path fill="#333" d="M85-194c31 0 48 13 60 33l-1-100h32l1 261h-30c-2-10 0-23-3-31C134-8 116 4 85 4 32 4 16-35 15-94c0-66 23-100 70-100zm9 24c-40 0-46 34-46 75 0 40 6 74 45 74 42 0 51-32 51-76 0-42-9-74-50-73" id="X"/><path fill="#333" d="M115-194c55 1 70 41 70 98S169 2 115 4C84 4 66-9 55-30l1 105H24l-1-265h31l2 30c10-21 28-34 59-34zm-8 174c40 0 45-34 45-75s-6-73-45-74c-42 0-51 32-51 76 0 43 10 73 51 73" id="Y"/><path fill="#333" d="M135-143c-3-34-86-38-87 0 15 53 115 12 119 90S17 21 10-45l28-5c4 36 97 45 98 0-10-56-113-15-118-90-4-57 82-63 122-42 12 7 21 19 24 35" id="Z"/><g id="e"><use transform="matrix(0.05,0,0,0.05,0,0)" xlink:href="#X"/><use transform="matrix(0.05,0,0,0.05,10,0)" xlink:href="#I"/><use transform="matrix(0.05,0,0,0.05,20,0)" xlink:href="#W"/><use transform="matrix(0.05,0,0,0.05,23.95,0)" xlink:href="#I"/><use transform="matrix(0.05,0,0,0.05,33.95,0)" xlink:href="#J"/><use transform="matrix(0.05,0,0,0.05,38.95,0)" xlink:href="#I"/><use transform="matrix(0.05,0,0,0.05,48.95,0)" xlink:href="#K"/><use transform="matrix(0.05,0,0,0.05,58.95,0)" xlink:href="#I"/><use transform="matrix(0.05,0,0,0.05,68.95,0)" xlink:href="#S"/><use transform="matrix(0.05,0,0,0.05,83.9,0)" xlink:href="#Y"/><use transform="matrix(0.05,0,0,0.05,93.9,0)" xlink:href="#J"/><use transform="matrix(0.05,0,0,0.05,98.9,0)" xlink:href="#P"/><use transform="matrix(0.05,0,0,0.05,107.9,0)" xlink:href="#K"/><use transform="matrix(0.05,0,0,0.05,117.9,0)" xlink:href="#U"/><use transform="matrix(0.05,0,0,0.05,122.9,0)" xlink:href="#N"/><use transform="matrix(0.05,0,0,0.05,132.9,0)" xlink:href="#W"/><use transform="matrix(0.05,0,0,0.05,136.85,0)" xlink:href="#X"/><use transform="matrix(0.05,0,0,0.05,146.85,0)" xlink:href="#I"/><use transform="matrix(0.05,0,0,0.05,156.85,0)" xlink:href="#O"/><use transform="matrix(0.05,0,0,0.05,162.79999999999998,0)" xlink:href="#Z"/><use transform="matrix(0.05,0,0,0.05,171.79999999999998,0)" xlink:href="#Q"/><use transform="matrix(0.05,0,0,0.05,177.74999999999997,0)" xlink:href="#R"/></g><g id="f"><use transform="matrix(0.05,0,0,0.05,0,0)" xlink:href="#Z"/><use transform="matrix(0.05,0,0,0.05,9,0)" xlink:href="#N"/><use transform="matrix(0.05,0,0,0.05,19,0)" xlink:href="#O"/><use transform="matrix(0.05,0,0,0.05,24.95,0)" xlink:href="#J"/><use transform="matrix(0.05,0,0,0.05,29.950000000000003,0)" xlink:href="#K"/><use transform="matrix(0.05,0,0,0.05,39.95,0)" xlink:href="#U"/><use transform="matrix(0.05,0,0,0.05,44.95,0)" xlink:href="#N"/><use transform="matrix(0.05,0,0,0.05,54.95,0)" xlink:href="#W"/><use transform="matrix(0.05,0,0,0.05,58.900000000000006,0)" xlink:href="#X"/><use transform="matrix(0.05,0,0,0.05,68.9,0)" xlink:href="#I"/><use transform="matrix(0.05,0,0,0.05,78.9,0)" xlink:href="#O"/><use transform="matrix(0.05,0,0,0.05,84.85000000000001,0)" xlink:href="#Q"/><use transform="matrix(0.05,0,0,0.05,90.80000000000001,0)" xlink:href="#R"/></g><path fill="#333" d="M135-194c53 0 70 44 70 98 0 56-19 98-73 100-31 1-45-17-59-34 3 33 2 69 2 105H25l-1-265h48c2 10 0 23 3 31 11-24 29-35 60-35zM114-30c33 0 39-31 40-66 0-38-9-64-40-64-56 0-55 130 0 130" id="aa"/><path fill="#333" d="M133-34C117-15 103 5 69 4 32 3 11-16 11-54c-1-60 55-63 116-61 1-26-3-47-28-47-18 1-26 9-28 27l-52-2c7-38 36-58 82-57s74 22 75 68l1 82c-1 14 12 18 25 15v27c-30 8-71 5-69-32zm-48 3c29 0 43-24 42-57-32 0-66-3-65 30 0 17 8 27 23 27" id="ab"/><path fill="#333" d="M114-157C55-157 80-60 75 0H25v-261h50l-1 109c12-26 28-41 61-42 86-1 58 113 63 194h-50c-7-57 23-157-34-157" id="ac"/><path fill="#333" d="M25-224v-37h50v37H25zM25 0v-190h50V0H25" id="ad"/><path fill="#333" d="M135-194c52 0 70 43 70 98 0 56-19 99-73 100-30 1-46-15-58-35L72 0H24l1-261h50v104c11-23 29-37 60-37zM114-30c31 0 40-27 40-66 0-37-7-63-39-63s-41 28-41 65c0 36 8 64 40 64" id="ae"/><g id="g"><use transform="matrix(0.05,0,0,0.05,0,0)" xlink:href="#aa"/><use transform="matrix(0.05,0,0,0.05,10.950000000000001,0)" xlink:href="#ab"/><use transform="matrix(0.05,0,0,0.05,20.950000000000003,0)" xlink:href="#s"/><use transform="matrix(0.05,0,0,0.05,26.900000000000002,0)" xlink:href="#ac"/><use transform="matrix(0.05,0,0,0.05,37.85,0)" xlink:href="#v"/><use transform="matrix(0.05,0,0,0.05,42.85,0)" xlink:href="#ad"/><use transform="matrix(0.05,0,0,0.05,47.85,0)" xlink:href="#ae"/></g><path fill="#333" d="M24-248c93 1 206-16 204 79-1 75-69 88-152 82V0H24v-248zm52 121c47 0 100 7 100-41 0-47-54-39-100-39v80" id="af"/><g id="h"><use transform="matrix(0.05,0,0,0.05,0,0)" xlink:href="#af"/><use transform="matrix(0.05,0,0,0.05,12,0)" xlink:href="#ab"/><use transform="matrix(0.05,0,0,0.05,22,0)" xlink:href="#s"/><use transform="matrix(0.05,0,0,0.05,27.950000000000003,0)" xlink:href="#ac"/></g><path fill="#333" d="M67-125c0 53 21 87 73 88 37 1 54-22 65-47l45 17C233-25 199 4 140 4 58 4 20-42 15-125 8-235 124-281 211-232c18 10 29 29 36 50l-46 12c-8-25-30-41-62-41-52 0-71 34-72 86" id="ag"/><path fill="#333" d="M199 0l-22-63H83L61 0H9l90-248h61L250 0h-51zm-33-102l-36-108c-10 38-24 72-36 108h72" id="ah"/><path fill="#333" d="M136-208V0H84v-208H4v-40h212v40h-80" id="ai"/><path fill="#333" d="M24 0v-248h195v40H76v63h132v40H76v65h150V0H24" id="aj"/><path fill="#333" d="M67-125c0 54 23 88 75 88 28 0 53-7 68-21v-34h-60v-39h108v91C232-14 192 4 140 4 58 4 20-42 15-125 8-236 126-280 215-234c19 10 29 26 37 47l-47 15c-11-23-29-39-63-39-53 1-75 33-75 86" id="ak"/><path fill="#333" d="M140-251c80 0 125 45 125 126S219 4 139 4C58 4 15-44 15-125s44-126 125-126zm-1 214c52 0 73-35 73-88 0-50-21-86-72-86-52 0-73 35-73 86s22 88 72 88" id="al"/><path fill="#333" d="M240-174c0 40-23 61-54 70L253 0h-59l-57-94H76V0H24v-248c93 4 217-23 216 74zM76-134c48-2 112 12 112-38 0-48-66-32-112-35v73" id="am"/><path fill="#333" d="M24 0v-248h52V0H24" id="an"/><path fill="#333" d="M169-182c-1-43-94-46-97-3 18 66 151 10 154 114 3 95-165 93-204 36-6-8-10-19-12-30l50-8c3 46 112 56 116 5-17-69-150-10-154-114-4-87 153-88 188-35 5 8 8 18 10 28" id="ao"/><g id="i"><use transform="matrix(0.05,0,0,0.05,0,0)" xlink:href="#ag"/><use transform="matrix(0.05,0,0,0.05,12.950000000000001,0)" xlink:href="#ah"/><use transform="matrix(0.05,0,0,0.05,24.550000000000004,0)" xlink:href="#ai"/><use transform="matrix(0.05,0,0,0.05,35.50000000000001,0)" xlink:href="#aj"/><use transform="matrix(0.05,0,0,0.05,47.50000000000001,0)" xlink:href="#ak"/><use transform="matrix(0.05,0,0,0.05,61.5,0)" xlink:href="#al"/><use transform="matrix(0.05,0,0,0.05,75.5,0)" xlink:href="#am"/><use transform="matrix(0.05,0,0,0.05,88.45,0)" xlink:href="#an"/><use transform="matrix(0.05,0,0,0.05,93.45,0)" xlink:href="#aj"/><use transform="matrix(0.05,0,0,0.05,105.45,0)" xlink:href="#ao"/></g><path fill="#333" d="M84 4C-5 8 30-112 23-190h32v120c0 31 7 50 39 49 72-2 45-101 50-169h31l1 190h-30c-1-10 1-25-2-33-11 22-28 36-60 37" id="ap"/><g id="j"><use transform="matrix(0.05,0,0,0.05,0,0)" xlink:href="#z"/><use transform="matrix(0.05,0,0,0.05,12,0)" xlink:href="#ap"/><use transform="matrix(0.05,0,0,0.05,22,0)" xlink:href="#X"/><use transform="matrix(0.05,0,0,0.05,32,0)" xlink:href="#V"/><use transform="matrix(0.05,0,0,0.05,35.95,0)" xlink:href="#N"/></g><path fill="#333" d="M30-248c118-7 216 8 213 122C240-48 200 0 122 0H30v-248zM63-27c89 8 146-16 146-99s-60-101-146-95v194" id="aq"/><path fill="#333" d="M117-194c89-4 53 116 60 194h-32v-121c0-31-8-49-39-48C34-167 62-67 57 0H25l-1-190h30c1 10-1 24 2 32 11-22 29-35 61-36" id="ar"/><g id="k"><use transform="matrix(0.05,0,0,0.05,0,0)" xlink:href="#aq"/><use transform="matrix(0.05,0,0,0.05,12.950000000000001,0)" xlink:href="#N"/><use transform="matrix(0.05,0,0,0.05,22.950000000000003,0)" xlink:href="#L"/><use transform="matrix(0.05,0,0,0.05,31.950000000000003,0)" xlink:href="#ap"/><use transform="matrix(0.05,0,0,0.05,41.95,0)" xlink:href="#S"/><use transform="matrix(0.05,0,0,0.05,56.900000000000006,0)" xlink:href="#I"/><use transform="matrix(0.05,0,0,0.05,66.9,0)" xlink:href="#ar"/><use transform="matrix(0.05,0,0,0.05,76.9,0)" xlink:href="#J"/><use transform="matrix(0.05,0,0,0.05,81.9,0)" xlink:href="#Z"/></g><path fill="#333" d="M137 0h-34L2-248h35l83 218 83-218h36" id="as"/><g id="l"><use transform="matrix(0.05,0,0,0.05,0,0)" xlink:href="#as"/><use transform="matrix(0.05,0,0,0.05,11.65,0)" xlink:href="#V"/><use transform="matrix(0.05,0,0,0.05,15.600000000000001,0)" xlink:href="#X"/><use transform="matrix(0.05,0,0,0.05,25.6,0)" xlink:href="#I"/><use transform="matrix(0.05,0,0,0.05,35.6,0)" xlink:href="#N"/></g><g id="m"><use transform="matrix(0.05,0,0,0.05,0,0)" xlink:href="#F"/><use transform="matrix(0.05,0,0,0.05,5,0)" xlink:href="#S"/><use transform="matrix(0.05,0,0,0.05,19.950000000000003,0)" xlink:href="#M"/><use transform="matrix(0.05,0,0,0.05,29.950000000000003,0)" xlink:href="#H"/><use transform="matrix(0.05,0,0,0.05,39.95,0)" xlink:href="#I"/></g><path fill="#333" d="M106-169C34-169 62-67 57 0H25v-261h32l-1 103c12-21 28-36 61-36 89 0 53 116 60 194h-32v-121c2-32-8-49-39-48" id="at"/><g id="n"><use transform="matrix(0.05,0,0,0.05,0,0)" xlink:href="#z"/><use transform="matrix(0.05,0,0,0.05,12,0)" xlink:href="#O"/><use transform="matrix(0.05,0,0,0.05,17.95,0)" xlink:href="#L"/><use transform="matrix(0.05,0,0,0.05,26.950000000000003,0)" xlink:href="#at"/><use transform="matrix(0.05,0,0,0.05,36.95,0)" xlink:href="#V"/><use transform="matrix(0.05,0,0,0.05,40.900000000000006,0)" xlink:href="#T"/><use transform="matrix(0.05,0,0,0.05,49.900000000000006,0)" xlink:href="#I"/></g><path fill="#333" d="M160-131c35 5 61 23 61 61C221 17 115-2 30 0v-248c76 3 177-17 177 60 0 33-19 50-47 57zm-97-11c50-1 110 9 110-42 0-47-63-36-110-37v79zm0 115c55-2 124 14 124-45 0-56-70-42-124-44v89" id="au"/><path fill="#333" d="M143 0L79-87 56-68V0H24v-261h32v163l83-92h37l-77 82L181 0h-38" id="av"/><g id="o"><use transform="matrix(0.05,0,0,0.05,0,0)" xlink:href="#au"/><use transform="matrix(0.05,0,0,0.05,12,0)" xlink:href="#N"/><use transform="matrix(0.05,0,0,0.05,22,0)" xlink:href="#N"/><use transform="matrix(0.05,0,0,0.05,32,0)" xlink:href="#av"/></g></defs></g></svg>